<mxfile host="app.diagrams.net" modified="2023-05-10T06:20:44.874Z" agent="Mozilla/5.0 (Windows NT 10.0; Win64; x64) AppleWebKit/537.36 (KHTML, like Gecko) Chrome/112.0.0.0 Safari/537.36" etag="34RL6IQfx6Qn5To2ZyEU" version="21.2.9" type="device">
  <diagram name="第 1 页" id="-qMm-6vvwnsNunjycT0Y">
    <mxGraphModel dx="2725" dy="687" grid="0" gridSize="10" guides="1" tooltips="1" connect="1" arrows="1" fold="1" page="1" pageScale="1" pageWidth="1169" pageHeight="827" math="0" shadow="0">
      <root>
        <mxCell id="0" />
        <mxCell id="1" parent="0" />
        <mxCell id="dwMM7s0VIMXF59yQhedn-1" value="&lt;font style=&quot;font-size: 16px;&quot;&gt;Input Sequence&lt;/font&gt;" style="rounded=0;whiteSpace=wrap;html=1;direction=south;labelBackgroundColor=none;fillColor=#deebf7;" parent="1" vertex="1">
          <mxGeometry x="-1140" y="285" width="80" height="120" as="geometry" />
        </mxCell>
        <mxCell id="dwMM7s0VIMXF59yQhedn-5" value="&lt;font style=&quot;font-size: 20px;&quot;&gt;CodeBERT&lt;/font&gt;" style="rounded=0;whiteSpace=wrap;html=1;direction=south;fillColor=#DEEBF7;perimeterSpacing=0;" parent="1" vertex="1">
          <mxGeometry x="-1006" y="146.5" width="120" height="400" as="geometry" />
        </mxCell>
        <mxCell id="dwMM7s0VIMXF59yQhedn-7" value="" style="endArrow=classic;html=1;rounded=0;exitX=0.5;exitY=0;exitDx=0;exitDy=0;entryX=0.5;entryY=1;entryDx=0;entryDy=0;" parent="1" source="dwMM7s0VIMXF59yQhedn-1" target="dwMM7s0VIMXF59yQhedn-5" edge="1">
          <mxGeometry width="50" height="50" relative="1" as="geometry">
            <mxPoint x="-579" y="377" as="sourcePoint" />
            <mxPoint x="-529" y="327" as="targetPoint" />
          </mxGeometry>
        </mxCell>
        <mxCell id="dwMM7s0VIMXF59yQhedn-8" value="" style="shape=table;startSize=0;container=1;collapsible=0;childLayout=tableLayout;fontSize=16;direction=south;flipH=1;flipV=1;fillColor=#4472c4;fontColor=#ffffff;strokeColor=#000000;" parent="1" vertex="1">
          <mxGeometry x="-826" y="226.5" width="160" height="240" as="geometry" />
        </mxCell>
        <mxCell id="dwMM7s0VIMXF59yQhedn-34" style="shape=tableRow;horizontal=0;startSize=0;swimlaneHead=0;swimlaneBody=0;strokeColor=#000000;top=0;left=0;bottom=0;right=0;collapsible=0;dropTarget=0;fillColor=none;points=[[0,0.5],[1,0.5]];portConstraint=eastwest;fontSize=16;" parent="dwMM7s0VIMXF59yQhedn-8" vertex="1">
          <mxGeometry width="160" height="40" as="geometry" />
        </mxCell>
        <mxCell id="dwMM7s0VIMXF59yQhedn-35" style="shape=partialRectangle;html=1;whiteSpace=wrap;connectable=0;strokeColor=#000000;overflow=hidden;fillColor=none;top=0;left=0;bottom=0;right=0;pointerEvents=1;fontSize=16;" parent="dwMM7s0VIMXF59yQhedn-34" vertex="1">
          <mxGeometry width="39" height="40" as="geometry">
            <mxRectangle width="39" height="40" as="alternateBounds" />
          </mxGeometry>
        </mxCell>
        <mxCell id="dwMM7s0VIMXF59yQhedn-36" style="shape=partialRectangle;html=1;whiteSpace=wrap;connectable=0;strokeColor=#000000;overflow=hidden;fillColor=none;top=0;left=0;bottom=0;right=0;pointerEvents=1;fontSize=16;" parent="dwMM7s0VIMXF59yQhedn-34" vertex="1">
          <mxGeometry x="39" width="42" height="40" as="geometry">
            <mxRectangle width="42" height="40" as="alternateBounds" />
          </mxGeometry>
        </mxCell>
        <mxCell id="dwMM7s0VIMXF59yQhedn-37" style="shape=partialRectangle;html=1;whiteSpace=wrap;connectable=0;strokeColor=#000000;overflow=hidden;fillColor=none;top=0;left=0;bottom=0;right=0;pointerEvents=1;fontSize=16;" parent="dwMM7s0VIMXF59yQhedn-34" vertex="1">
          <mxGeometry x="81" width="41" height="40" as="geometry">
            <mxRectangle width="41" height="40" as="alternateBounds" />
          </mxGeometry>
        </mxCell>
        <mxCell id="dwMM7s0VIMXF59yQhedn-38" style="shape=partialRectangle;html=1;whiteSpace=wrap;connectable=0;strokeColor=#000000;overflow=hidden;fillColor=none;top=0;left=0;bottom=0;right=0;pointerEvents=1;fontSize=16;" parent="dwMM7s0VIMXF59yQhedn-34" vertex="1">
          <mxGeometry x="122" width="38" height="40" as="geometry">
            <mxRectangle width="38" height="40" as="alternateBounds" />
          </mxGeometry>
        </mxCell>
        <mxCell id="dwMM7s0VIMXF59yQhedn-25" style="shape=tableRow;horizontal=0;startSize=0;swimlaneHead=0;swimlaneBody=0;strokeColor=#000000;top=0;left=0;bottom=0;right=0;collapsible=0;dropTarget=0;fillColor=none;points=[[0,0.5],[1,0.5]];portConstraint=eastwest;fontSize=16;" parent="dwMM7s0VIMXF59yQhedn-8" vertex="1">
          <mxGeometry y="40" width="160" height="40" as="geometry" />
        </mxCell>
        <mxCell id="dwMM7s0VIMXF59yQhedn-26" style="shape=partialRectangle;html=1;whiteSpace=wrap;connectable=0;strokeColor=#000000;overflow=hidden;fillColor=none;top=0;left=0;bottom=0;right=0;pointerEvents=1;fontSize=16;" parent="dwMM7s0VIMXF59yQhedn-25" vertex="1">
          <mxGeometry width="39" height="40" as="geometry">
            <mxRectangle width="39" height="40" as="alternateBounds" />
          </mxGeometry>
        </mxCell>
        <mxCell id="dwMM7s0VIMXF59yQhedn-27" style="shape=partialRectangle;html=1;whiteSpace=wrap;connectable=0;strokeColor=#000000;overflow=hidden;fillColor=none;top=0;left=0;bottom=0;right=0;pointerEvents=1;fontSize=16;" parent="dwMM7s0VIMXF59yQhedn-25" vertex="1">
          <mxGeometry x="39" width="42" height="40" as="geometry">
            <mxRectangle width="42" height="40" as="alternateBounds" />
          </mxGeometry>
        </mxCell>
        <mxCell id="dwMM7s0VIMXF59yQhedn-28" style="shape=partialRectangle;html=1;whiteSpace=wrap;connectable=0;strokeColor=#000000;overflow=hidden;fillColor=none;top=0;left=0;bottom=0;right=0;pointerEvents=1;fontSize=16;" parent="dwMM7s0VIMXF59yQhedn-25" vertex="1">
          <mxGeometry x="81" width="41" height="40" as="geometry">
            <mxRectangle width="41" height="40" as="alternateBounds" />
          </mxGeometry>
        </mxCell>
        <mxCell id="dwMM7s0VIMXF59yQhedn-29" style="shape=partialRectangle;html=1;whiteSpace=wrap;connectable=0;strokeColor=#000000;overflow=hidden;fillColor=none;top=0;left=0;bottom=0;right=0;pointerEvents=1;fontSize=16;" parent="dwMM7s0VIMXF59yQhedn-25" vertex="1">
          <mxGeometry x="122" width="38" height="40" as="geometry">
            <mxRectangle width="38" height="40" as="alternateBounds" />
          </mxGeometry>
        </mxCell>
        <mxCell id="dwMM7s0VIMXF59yQhedn-21" style="shape=tableRow;horizontal=0;startSize=0;swimlaneHead=0;swimlaneBody=0;strokeColor=#000000;top=0;left=0;bottom=0;right=0;collapsible=0;dropTarget=0;fillColor=none;points=[[0,0.5],[1,0.5]];portConstraint=eastwest;fontSize=16;" parent="dwMM7s0VIMXF59yQhedn-8" vertex="1">
          <mxGeometry y="80" width="160" height="41" as="geometry" />
        </mxCell>
        <mxCell id="dwMM7s0VIMXF59yQhedn-22" style="shape=partialRectangle;html=1;whiteSpace=wrap;connectable=0;strokeColor=#000000;overflow=hidden;fillColor=none;top=0;left=0;bottom=0;right=0;pointerEvents=1;fontSize=16;" parent="dwMM7s0VIMXF59yQhedn-21" vertex="1">
          <mxGeometry width="39" height="41" as="geometry">
            <mxRectangle width="39" height="41" as="alternateBounds" />
          </mxGeometry>
        </mxCell>
        <mxCell id="dwMM7s0VIMXF59yQhedn-23" style="shape=partialRectangle;html=1;whiteSpace=wrap;connectable=0;strokeColor=#000000;overflow=hidden;fillColor=none;top=0;left=0;bottom=0;right=0;pointerEvents=1;fontSize=16;" parent="dwMM7s0VIMXF59yQhedn-21" vertex="1">
          <mxGeometry x="39" width="42" height="41" as="geometry">
            <mxRectangle width="42" height="41" as="alternateBounds" />
          </mxGeometry>
        </mxCell>
        <mxCell id="dwMM7s0VIMXF59yQhedn-24" style="shape=partialRectangle;html=1;whiteSpace=wrap;connectable=0;strokeColor=#000000;overflow=hidden;fillColor=none;top=0;left=0;bottom=0;right=0;pointerEvents=1;fontSize=16;" parent="dwMM7s0VIMXF59yQhedn-21" vertex="1">
          <mxGeometry x="81" width="41" height="41" as="geometry">
            <mxRectangle width="41" height="41" as="alternateBounds" />
          </mxGeometry>
        </mxCell>
        <mxCell id="dwMM7s0VIMXF59yQhedn-30" style="shape=partialRectangle;html=1;whiteSpace=wrap;connectable=0;strokeColor=#000000;overflow=hidden;fillColor=none;top=0;left=0;bottom=0;right=0;pointerEvents=1;fontSize=16;" parent="dwMM7s0VIMXF59yQhedn-21" vertex="1">
          <mxGeometry x="122" width="38" height="41" as="geometry">
            <mxRectangle width="38" height="41" as="alternateBounds" />
          </mxGeometry>
        </mxCell>
        <mxCell id="dwMM7s0VIMXF59yQhedn-9" value="" style="shape=tableRow;horizontal=0;startSize=0;swimlaneHead=0;swimlaneBody=0;strokeColor=#000000;top=0;left=0;bottom=0;right=0;collapsible=0;dropTarget=0;fillColor=none;points=[[0,0.5],[1,0.5]];portConstraint=eastwest;fontSize=16;" parent="dwMM7s0VIMXF59yQhedn-8" vertex="1">
          <mxGeometry y="121" width="160" height="39" as="geometry" />
        </mxCell>
        <mxCell id="dwMM7s0VIMXF59yQhedn-10" value="" style="shape=partialRectangle;html=1;whiteSpace=wrap;connectable=0;strokeColor=#000000;overflow=hidden;fillColor=none;top=0;left=0;bottom=0;right=0;pointerEvents=1;fontSize=16;" parent="dwMM7s0VIMXF59yQhedn-9" vertex="1">
          <mxGeometry width="39" height="39" as="geometry">
            <mxRectangle width="39" height="39" as="alternateBounds" />
          </mxGeometry>
        </mxCell>
        <mxCell id="dwMM7s0VIMXF59yQhedn-11" value="" style="shape=partialRectangle;html=1;whiteSpace=wrap;connectable=0;strokeColor=#000000;overflow=hidden;fillColor=none;top=0;left=0;bottom=0;right=0;pointerEvents=1;fontSize=16;" parent="dwMM7s0VIMXF59yQhedn-9" vertex="1">
          <mxGeometry x="39" width="42" height="39" as="geometry">
            <mxRectangle width="42" height="39" as="alternateBounds" />
          </mxGeometry>
        </mxCell>
        <mxCell id="dwMM7s0VIMXF59yQhedn-12" value="" style="shape=partialRectangle;html=1;whiteSpace=wrap;connectable=0;strokeColor=#000000;overflow=hidden;fillColor=none;top=0;left=0;bottom=0;right=0;pointerEvents=1;fontSize=16;" parent="dwMM7s0VIMXF59yQhedn-9" vertex="1">
          <mxGeometry x="81" width="41" height="39" as="geometry">
            <mxRectangle width="41" height="39" as="alternateBounds" />
          </mxGeometry>
        </mxCell>
        <mxCell id="dwMM7s0VIMXF59yQhedn-31" style="shape=partialRectangle;html=1;whiteSpace=wrap;connectable=0;strokeColor=#000000;overflow=hidden;fillColor=none;top=0;left=0;bottom=0;right=0;pointerEvents=1;fontSize=16;" parent="dwMM7s0VIMXF59yQhedn-9" vertex="1">
          <mxGeometry x="122" width="38" height="39" as="geometry">
            <mxRectangle width="38" height="39" as="alternateBounds" />
          </mxGeometry>
        </mxCell>
        <mxCell id="dwMM7s0VIMXF59yQhedn-13" value="" style="shape=tableRow;horizontal=0;startSize=0;swimlaneHead=0;swimlaneBody=0;strokeColor=#000000;top=0;left=0;bottom=0;right=0;collapsible=0;dropTarget=0;fillColor=none;points=[[0,0.5],[1,0.5]];portConstraint=eastwest;fontSize=16;" parent="dwMM7s0VIMXF59yQhedn-8" vertex="1">
          <mxGeometry y="160" width="160" height="40" as="geometry" />
        </mxCell>
        <mxCell id="dwMM7s0VIMXF59yQhedn-14" value="" style="shape=partialRectangle;html=1;whiteSpace=wrap;connectable=0;strokeColor=#000000;overflow=hidden;fillColor=none;top=0;left=0;bottom=0;right=0;pointerEvents=1;fontSize=16;" parent="dwMM7s0VIMXF59yQhedn-13" vertex="1">
          <mxGeometry width="39" height="40" as="geometry">
            <mxRectangle width="39" height="40" as="alternateBounds" />
          </mxGeometry>
        </mxCell>
        <mxCell id="dwMM7s0VIMXF59yQhedn-15" value="" style="shape=partialRectangle;html=1;whiteSpace=wrap;connectable=0;strokeColor=#000000;overflow=hidden;fillColor=none;top=0;left=0;bottom=0;right=0;pointerEvents=1;fontSize=16;" parent="dwMM7s0VIMXF59yQhedn-13" vertex="1">
          <mxGeometry x="39" width="42" height="40" as="geometry">
            <mxRectangle width="42" height="40" as="alternateBounds" />
          </mxGeometry>
        </mxCell>
        <mxCell id="dwMM7s0VIMXF59yQhedn-16" value="" style="shape=partialRectangle;html=1;whiteSpace=wrap;connectable=0;strokeColor=#000000;overflow=hidden;fillColor=none;top=0;left=0;bottom=0;right=0;pointerEvents=1;fontSize=16;" parent="dwMM7s0VIMXF59yQhedn-13" vertex="1">
          <mxGeometry x="81" width="41" height="40" as="geometry">
            <mxRectangle width="41" height="40" as="alternateBounds" />
          </mxGeometry>
        </mxCell>
        <mxCell id="dwMM7s0VIMXF59yQhedn-32" style="shape=partialRectangle;html=1;whiteSpace=wrap;connectable=0;strokeColor=#000000;overflow=hidden;fillColor=none;top=0;left=0;bottom=0;right=0;pointerEvents=1;fontSize=16;" parent="dwMM7s0VIMXF59yQhedn-13" vertex="1">
          <mxGeometry x="122" width="38" height="40" as="geometry">
            <mxRectangle width="38" height="40" as="alternateBounds" />
          </mxGeometry>
        </mxCell>
        <mxCell id="dwMM7s0VIMXF59yQhedn-17" value="" style="shape=tableRow;horizontal=0;startSize=0;swimlaneHead=0;swimlaneBody=0;strokeColor=#000000;top=0;left=0;bottom=0;right=0;collapsible=0;dropTarget=0;fillColor=none;points=[[0,0.5],[1,0.5]];portConstraint=eastwest;fontSize=16;" parent="dwMM7s0VIMXF59yQhedn-8" vertex="1">
          <mxGeometry y="200" width="160" height="40" as="geometry" />
        </mxCell>
        <mxCell id="dwMM7s0VIMXF59yQhedn-18" value="" style="shape=partialRectangle;html=1;whiteSpace=wrap;connectable=0;strokeColor=#000000;overflow=hidden;fillColor=none;top=0;left=0;bottom=0;right=0;pointerEvents=1;fontSize=16;" parent="dwMM7s0VIMXF59yQhedn-17" vertex="1">
          <mxGeometry width="39" height="40" as="geometry">
            <mxRectangle width="39" height="40" as="alternateBounds" />
          </mxGeometry>
        </mxCell>
        <mxCell id="dwMM7s0VIMXF59yQhedn-19" value="" style="shape=partialRectangle;html=1;whiteSpace=wrap;connectable=0;strokeColor=#000000;overflow=hidden;fillColor=none;top=0;left=0;bottom=0;right=0;pointerEvents=1;fontSize=16;" parent="dwMM7s0VIMXF59yQhedn-17" vertex="1">
          <mxGeometry x="39" width="42" height="40" as="geometry">
            <mxRectangle width="42" height="40" as="alternateBounds" />
          </mxGeometry>
        </mxCell>
        <mxCell id="dwMM7s0VIMXF59yQhedn-20" value="" style="shape=partialRectangle;html=1;whiteSpace=wrap;connectable=0;strokeColor=#000000;overflow=hidden;fillColor=none;top=0;left=0;bottom=0;right=0;pointerEvents=1;fontSize=16;" parent="dwMM7s0VIMXF59yQhedn-17" vertex="1">
          <mxGeometry x="81" width="41" height="40" as="geometry">
            <mxRectangle width="41" height="40" as="alternateBounds" />
          </mxGeometry>
        </mxCell>
        <mxCell id="dwMM7s0VIMXF59yQhedn-33" style="shape=partialRectangle;html=1;whiteSpace=wrap;connectable=0;strokeColor=#000000;overflow=hidden;fillColor=none;top=0;left=0;bottom=0;right=0;pointerEvents=1;fontSize=16;" parent="dwMM7s0VIMXF59yQhedn-17" vertex="1">
          <mxGeometry x="122" width="38" height="40" as="geometry">
            <mxRectangle width="38" height="40" as="alternateBounds" />
          </mxGeometry>
        </mxCell>
        <mxCell id="dwMM7s0VIMXF59yQhedn-39" value="" style="shape=curlyBracket;whiteSpace=wrap;html=1;rounded=1;labelPosition=left;verticalLabelPosition=middle;align=right;verticalAlign=middle;direction=south;" parent="1" vertex="1">
          <mxGeometry x="-826" y="180" width="160" height="20" as="geometry" />
        </mxCell>
        <mxCell id="dwMM7s0VIMXF59yQhedn-40" value="&lt;font style=&quot;font-size: 16px;&quot;&gt;Embeddings dimension&lt;/font&gt;" style="text;strokeColor=none;align=center;fillColor=none;html=1;verticalAlign=middle;whiteSpace=wrap;rounded=0;" parent="1" vertex="1">
          <mxGeometry x="-857" y="150" width="222" height="30" as="geometry" />
        </mxCell>
        <mxCell id="dwMM7s0VIMXF59yQhedn-41" value="&lt;b&gt;&lt;font style=&quot;font-size: 20px;&quot;&gt;...&lt;/font&gt;&lt;/b&gt;" style="text;strokeColor=none;align=center;fillColor=none;html=1;verticalAlign=middle;whiteSpace=wrap;rounded=0;" parent="1" vertex="1">
          <mxGeometry x="-807.5" y="184" width="123" height="33" as="geometry" />
        </mxCell>
        <mxCell id="dwMM7s0VIMXF59yQhedn-117" value="" style="shape=table;startSize=0;container=1;collapsible=0;childLayout=tableLayout;fontSize=16;direction=south;flipH=1;flipV=1;fillColor=#203864;fontColor=#ffffff;strokeColor=#000000;strokeWidth=1;" parent="1" vertex="1">
          <mxGeometry x="-569" y="23" width="39" height="121" as="geometry" />
        </mxCell>
        <mxCell id="dwMM7s0VIMXF59yQhedn-118" style="shape=tableRow;horizontal=0;startSize=0;swimlaneHead=0;swimlaneBody=0;strokeColor=#000000;top=0;left=0;bottom=0;right=0;collapsible=0;dropTarget=0;fillColor=none;points=[[0,0.5],[1,0.5]];portConstraint=eastwest;fontSize=16;" parent="dwMM7s0VIMXF59yQhedn-117" vertex="1">
          <mxGeometry width="39" height="40" as="geometry" />
        </mxCell>
        <mxCell id="dwMM7s0VIMXF59yQhedn-119" style="shape=partialRectangle;html=1;whiteSpace=wrap;connectable=0;strokeColor=#000000;overflow=hidden;fillColor=none;top=0;left=0;bottom=0;right=0;pointerEvents=1;fontSize=16;" parent="dwMM7s0VIMXF59yQhedn-118" vertex="1">
          <mxGeometry width="39" height="40" as="geometry">
            <mxRectangle width="39" height="40" as="alternateBounds" />
          </mxGeometry>
        </mxCell>
        <mxCell id="dwMM7s0VIMXF59yQhedn-123" style="shape=tableRow;horizontal=0;startSize=0;swimlaneHead=0;swimlaneBody=0;strokeColor=#000000;top=0;left=0;bottom=0;right=0;collapsible=0;dropTarget=0;fillColor=none;points=[[0,0.5],[1,0.5]];portConstraint=eastwest;fontSize=16;" parent="dwMM7s0VIMXF59yQhedn-117" vertex="1">
          <mxGeometry y="40" width="39" height="40" as="geometry" />
        </mxCell>
        <mxCell id="dwMM7s0VIMXF59yQhedn-124" style="shape=partialRectangle;html=1;whiteSpace=wrap;connectable=0;strokeColor=#000000;overflow=hidden;fillColor=none;top=0;left=0;bottom=0;right=0;pointerEvents=1;fontSize=16;" parent="dwMM7s0VIMXF59yQhedn-123" vertex="1">
          <mxGeometry width="39" height="40" as="geometry">
            <mxRectangle width="39" height="40" as="alternateBounds" />
          </mxGeometry>
        </mxCell>
        <mxCell id="dwMM7s0VIMXF59yQhedn-128" style="shape=tableRow;horizontal=0;startSize=0;swimlaneHead=0;swimlaneBody=0;strokeColor=#000000;top=0;left=0;bottom=0;right=0;collapsible=0;dropTarget=0;fillColor=none;points=[[0,0.5],[1,0.5]];portConstraint=eastwest;fontSize=16;" parent="dwMM7s0VIMXF59yQhedn-117" vertex="1">
          <mxGeometry y="80" width="39" height="41" as="geometry" />
        </mxCell>
        <mxCell id="dwMM7s0VIMXF59yQhedn-129" style="shape=partialRectangle;html=1;whiteSpace=wrap;connectable=0;strokeColor=#000000;overflow=hidden;fillColor=none;top=0;left=0;bottom=0;right=0;pointerEvents=1;fontSize=16;" parent="dwMM7s0VIMXF59yQhedn-128" vertex="1">
          <mxGeometry width="39" height="41" as="geometry">
            <mxRectangle width="39" height="41" as="alternateBounds" />
          </mxGeometry>
        </mxCell>
        <mxCell id="dwMM7s0VIMXF59yQhedn-148" value="" style="shape=table;startSize=0;container=1;collapsible=0;childLayout=tableLayout;fontSize=16;direction=south;flipH=1;flipV=1;fillColor=#2f5597;fontColor=#ffffff;strokeColor=#000000;strokeWidth=1;" parent="1" vertex="1">
          <mxGeometry x="-559" y="33" width="39" height="121" as="geometry" />
        </mxCell>
        <mxCell id="dwMM7s0VIMXF59yQhedn-149" style="shape=tableRow;horizontal=0;startSize=0;swimlaneHead=0;swimlaneBody=0;strokeColor=#000000;top=0;left=0;bottom=0;right=0;collapsible=0;dropTarget=0;fillColor=none;points=[[0,0.5],[1,0.5]];portConstraint=eastwest;fontSize=16;" parent="dwMM7s0VIMXF59yQhedn-148" vertex="1">
          <mxGeometry width="39" height="40" as="geometry" />
        </mxCell>
        <mxCell id="dwMM7s0VIMXF59yQhedn-150" style="shape=partialRectangle;html=1;whiteSpace=wrap;connectable=0;strokeColor=#000000;overflow=hidden;fillColor=none;top=0;left=0;bottom=0;right=0;pointerEvents=1;fontSize=16;" parent="dwMM7s0VIMXF59yQhedn-149" vertex="1">
          <mxGeometry width="39" height="40" as="geometry">
            <mxRectangle width="39" height="40" as="alternateBounds" />
          </mxGeometry>
        </mxCell>
        <mxCell id="dwMM7s0VIMXF59yQhedn-151" style="shape=tableRow;horizontal=0;startSize=0;swimlaneHead=0;swimlaneBody=0;strokeColor=#000000;top=0;left=0;bottom=0;right=0;collapsible=0;dropTarget=0;fillColor=none;points=[[0,0.5],[1,0.5]];portConstraint=eastwest;fontSize=16;" parent="dwMM7s0VIMXF59yQhedn-148" vertex="1">
          <mxGeometry y="40" width="39" height="40" as="geometry" />
        </mxCell>
        <mxCell id="dwMM7s0VIMXF59yQhedn-152" style="shape=partialRectangle;html=1;whiteSpace=wrap;connectable=0;strokeColor=#000000;overflow=hidden;fillColor=none;top=0;left=0;bottom=0;right=0;pointerEvents=1;fontSize=16;" parent="dwMM7s0VIMXF59yQhedn-151" vertex="1">
          <mxGeometry width="39" height="40" as="geometry">
            <mxRectangle width="39" height="40" as="alternateBounds" />
          </mxGeometry>
        </mxCell>
        <mxCell id="dwMM7s0VIMXF59yQhedn-153" style="shape=tableRow;horizontal=0;startSize=0;swimlaneHead=0;swimlaneBody=0;strokeColor=#000000;top=0;left=0;bottom=0;right=0;collapsible=0;dropTarget=0;fillColor=none;points=[[0,0.5],[1,0.5]];portConstraint=eastwest;fontSize=16;" parent="dwMM7s0VIMXF59yQhedn-148" vertex="1">
          <mxGeometry y="80" width="39" height="41" as="geometry" />
        </mxCell>
        <mxCell id="dwMM7s0VIMXF59yQhedn-154" style="shape=partialRectangle;html=1;whiteSpace=wrap;connectable=0;strokeColor=#000000;overflow=hidden;fillColor=none;top=0;left=0;bottom=0;right=0;pointerEvents=1;fontSize=16;" parent="dwMM7s0VIMXF59yQhedn-153" vertex="1">
          <mxGeometry width="39" height="41" as="geometry">
            <mxRectangle width="39" height="41" as="alternateBounds" />
          </mxGeometry>
        </mxCell>
        <mxCell id="dwMM7s0VIMXF59yQhedn-162" value="" style="shape=table;startSize=0;container=1;collapsible=0;childLayout=tableLayout;fontSize=16;direction=south;flipH=1;flipV=1;fillColor=#8faadc;fontColor=#ffffff;strokeColor=#000000;strokeWidth=1;" parent="1" vertex="1">
          <mxGeometry x="-549" y="43" width="39" height="121" as="geometry" />
        </mxCell>
        <mxCell id="dwMM7s0VIMXF59yQhedn-163" style="shape=tableRow;horizontal=0;startSize=0;swimlaneHead=0;swimlaneBody=0;strokeColor=#000000;top=0;left=0;bottom=0;right=0;collapsible=0;dropTarget=0;fillColor=none;points=[[0,0.5],[1,0.5]];portConstraint=eastwest;fontSize=16;" parent="dwMM7s0VIMXF59yQhedn-162" vertex="1">
          <mxGeometry width="39" height="40" as="geometry" />
        </mxCell>
        <mxCell id="dwMM7s0VIMXF59yQhedn-164" style="shape=partialRectangle;html=1;whiteSpace=wrap;connectable=0;strokeColor=#000000;overflow=hidden;fillColor=none;top=0;left=0;bottom=0;right=0;pointerEvents=1;fontSize=16;" parent="dwMM7s0VIMXF59yQhedn-163" vertex="1">
          <mxGeometry width="39" height="40" as="geometry">
            <mxRectangle width="39" height="40" as="alternateBounds" />
          </mxGeometry>
        </mxCell>
        <mxCell id="dwMM7s0VIMXF59yQhedn-165" style="shape=tableRow;horizontal=0;startSize=0;swimlaneHead=0;swimlaneBody=0;strokeColor=#000000;top=0;left=0;bottom=0;right=0;collapsible=0;dropTarget=0;fillColor=none;points=[[0,0.5],[1,0.5]];portConstraint=eastwest;fontSize=16;" parent="dwMM7s0VIMXF59yQhedn-162" vertex="1">
          <mxGeometry y="40" width="39" height="40" as="geometry" />
        </mxCell>
        <mxCell id="dwMM7s0VIMXF59yQhedn-166" style="shape=partialRectangle;html=1;whiteSpace=wrap;connectable=0;strokeColor=#8faadc;overflow=hidden;fillColor=none;top=0;left=0;bottom=0;right=0;pointerEvents=1;fontSize=16;" parent="dwMM7s0VIMXF59yQhedn-165" vertex="1">
          <mxGeometry width="39" height="40" as="geometry">
            <mxRectangle width="39" height="40" as="alternateBounds" />
          </mxGeometry>
        </mxCell>
        <mxCell id="dwMM7s0VIMXF59yQhedn-167" style="shape=tableRow;horizontal=0;startSize=0;swimlaneHead=0;swimlaneBody=0;strokeColor=#000000;top=0;left=0;bottom=0;right=0;collapsible=0;dropTarget=0;fillColor=none;points=[[0,0.5],[1,0.5]];portConstraint=eastwest;fontSize=16;" parent="dwMM7s0VIMXF59yQhedn-162" vertex="1">
          <mxGeometry y="80" width="39" height="41" as="geometry" />
        </mxCell>
        <mxCell id="dwMM7s0VIMXF59yQhedn-168" style="shape=partialRectangle;html=1;whiteSpace=wrap;connectable=0;strokeColor=#000000;overflow=hidden;fillColor=none;top=0;left=0;bottom=0;right=0;pointerEvents=1;fontSize=16;" parent="dwMM7s0VIMXF59yQhedn-167" vertex="1">
          <mxGeometry width="39" height="41" as="geometry">
            <mxRectangle width="39" height="41" as="alternateBounds" />
          </mxGeometry>
        </mxCell>
        <mxCell id="dwMM7s0VIMXF59yQhedn-253" value="" style="shape=table;startSize=0;container=1;collapsible=0;childLayout=tableLayout;fontSize=16;direction=south;flipH=1;flipV=1;fillColor=#7f6000;fontColor=#ffffff;strokeColor=#000000;strokeWidth=1;" parent="1" vertex="1">
          <mxGeometry x="-569" y="254.5" width="39" height="162" as="geometry" />
        </mxCell>
        <mxCell id="dwMM7s0VIMXF59yQhedn-254" style="shape=tableRow;horizontal=0;startSize=0;swimlaneHead=0;swimlaneBody=0;strokeColor=#000000;top=0;left=0;bottom=0;right=0;collapsible=0;dropTarget=0;fillColor=none;points=[[0,0.5],[1,0.5]];portConstraint=eastwest;fontSize=16;" parent="dwMM7s0VIMXF59yQhedn-253" vertex="1">
          <mxGeometry width="39" height="40" as="geometry" />
        </mxCell>
        <mxCell id="dwMM7s0VIMXF59yQhedn-255" style="shape=partialRectangle;html=1;whiteSpace=wrap;connectable=0;strokeColor=#000000;overflow=hidden;fillColor=none;top=0;left=0;bottom=0;right=0;pointerEvents=1;fontSize=16;" parent="dwMM7s0VIMXF59yQhedn-254" vertex="1">
          <mxGeometry width="39" height="40" as="geometry">
            <mxRectangle width="39" height="40" as="alternateBounds" />
          </mxGeometry>
        </mxCell>
        <mxCell id="dwMM7s0VIMXF59yQhedn-256" style="shape=tableRow;horizontal=0;startSize=0;swimlaneHead=0;swimlaneBody=0;strokeColor=#000000;top=0;left=0;bottom=0;right=0;collapsible=0;dropTarget=0;fillColor=none;points=[[0,0.5],[1,0.5]];portConstraint=eastwest;fontSize=16;" parent="dwMM7s0VIMXF59yQhedn-253" vertex="1">
          <mxGeometry y="40" width="39" height="40" as="geometry" />
        </mxCell>
        <mxCell id="dwMM7s0VIMXF59yQhedn-257" style="shape=partialRectangle;html=1;whiteSpace=wrap;connectable=0;strokeColor=#000000;overflow=hidden;fillColor=none;top=0;left=0;bottom=0;right=0;pointerEvents=1;fontSize=16;" parent="dwMM7s0VIMXF59yQhedn-256" vertex="1">
          <mxGeometry width="39" height="40" as="geometry">
            <mxRectangle width="39" height="40" as="alternateBounds" />
          </mxGeometry>
        </mxCell>
        <mxCell id="dwMM7s0VIMXF59yQhedn-258" style="shape=tableRow;horizontal=0;startSize=0;swimlaneHead=0;swimlaneBody=0;strokeColor=#000000;top=0;left=0;bottom=0;right=0;collapsible=0;dropTarget=0;fillColor=none;points=[[0,0.5],[1,0.5]];portConstraint=eastwest;fontSize=16;" parent="dwMM7s0VIMXF59yQhedn-253" vertex="1">
          <mxGeometry y="80" width="39" height="41" as="geometry" />
        </mxCell>
        <mxCell id="dwMM7s0VIMXF59yQhedn-259" style="shape=partialRectangle;html=1;whiteSpace=wrap;connectable=0;strokeColor=#000000;overflow=hidden;fillColor=none;top=0;left=0;bottom=0;right=0;pointerEvents=1;fontSize=16;" parent="dwMM7s0VIMXF59yQhedn-258" vertex="1">
          <mxGeometry width="39" height="41" as="geometry">
            <mxRectangle width="39" height="41" as="alternateBounds" />
          </mxGeometry>
        </mxCell>
        <mxCell id="dwMM7s0VIMXF59yQhedn-274" style="shape=tableRow;horizontal=0;startSize=0;swimlaneHead=0;swimlaneBody=0;strokeColor=#000000;top=0;left=0;bottom=0;right=0;collapsible=0;dropTarget=0;fillColor=none;points=[[0,0.5],[1,0.5]];portConstraint=eastwest;fontSize=16;" parent="dwMM7s0VIMXF59yQhedn-253" vertex="1">
          <mxGeometry y="121" width="39" height="41" as="geometry" />
        </mxCell>
        <mxCell id="dwMM7s0VIMXF59yQhedn-275" style="shape=partialRectangle;html=1;whiteSpace=wrap;connectable=0;strokeColor=#000000;overflow=hidden;fillColor=none;top=0;left=0;bottom=0;right=0;pointerEvents=1;fontSize=16;" parent="dwMM7s0VIMXF59yQhedn-274" vertex="1">
          <mxGeometry width="39" height="41" as="geometry">
            <mxRectangle width="39" height="41" as="alternateBounds" />
          </mxGeometry>
        </mxCell>
        <mxCell id="dwMM7s0VIMXF59yQhedn-260" value="" style="shape=table;startSize=0;container=1;collapsible=0;childLayout=tableLayout;fontSize=16;direction=south;flipH=1;flipV=1;fillColor=#bf9000;fontColor=#ffffff;strokeColor=#000000;strokeWidth=1;" parent="1" vertex="1">
          <mxGeometry x="-559" y="264.5" width="39" height="161" as="geometry" />
        </mxCell>
        <mxCell id="dwMM7s0VIMXF59yQhedn-261" style="shape=tableRow;horizontal=0;startSize=0;swimlaneHead=0;swimlaneBody=0;strokeColor=#000000;top=0;left=0;bottom=0;right=0;collapsible=0;dropTarget=0;fillColor=none;points=[[0,0.5],[1,0.5]];portConstraint=eastwest;fontSize=16;" parent="dwMM7s0VIMXF59yQhedn-260" vertex="1">
          <mxGeometry width="39" height="40" as="geometry" />
        </mxCell>
        <mxCell id="dwMM7s0VIMXF59yQhedn-262" style="shape=partialRectangle;html=1;whiteSpace=wrap;connectable=0;strokeColor=#000000;overflow=hidden;fillColor=none;top=0;left=0;bottom=0;right=0;pointerEvents=1;fontSize=16;" parent="dwMM7s0VIMXF59yQhedn-261" vertex="1">
          <mxGeometry width="39" height="40" as="geometry">
            <mxRectangle width="39" height="40" as="alternateBounds" />
          </mxGeometry>
        </mxCell>
        <mxCell id="dwMM7s0VIMXF59yQhedn-278" style="shape=tableRow;horizontal=0;startSize=0;swimlaneHead=0;swimlaneBody=0;strokeColor=#000000;top=0;left=0;bottom=0;right=0;collapsible=0;dropTarget=0;fillColor=none;points=[[0,0.5],[1,0.5]];portConstraint=eastwest;fontSize=16;" parent="dwMM7s0VIMXF59yQhedn-260" vertex="1">
          <mxGeometry y="40" width="39" height="40" as="geometry" />
        </mxCell>
        <mxCell id="dwMM7s0VIMXF59yQhedn-279" style="shape=partialRectangle;html=1;whiteSpace=wrap;connectable=0;strokeColor=#000000;overflow=hidden;fillColor=none;top=0;left=0;bottom=0;right=0;pointerEvents=1;fontSize=16;" parent="dwMM7s0VIMXF59yQhedn-278" vertex="1">
          <mxGeometry width="39" height="40" as="geometry">
            <mxRectangle width="39" height="40" as="alternateBounds" />
          </mxGeometry>
        </mxCell>
        <mxCell id="dwMM7s0VIMXF59yQhedn-263" style="shape=tableRow;horizontal=0;startSize=0;swimlaneHead=0;swimlaneBody=0;strokeColor=#000000;top=0;left=0;bottom=0;right=0;collapsible=0;dropTarget=0;fillColor=none;points=[[0,0.5],[1,0.5]];portConstraint=eastwest;fontSize=16;" parent="dwMM7s0VIMXF59yQhedn-260" vertex="1">
          <mxGeometry y="80" width="39" height="40" as="geometry" />
        </mxCell>
        <mxCell id="dwMM7s0VIMXF59yQhedn-264" style="shape=partialRectangle;html=1;whiteSpace=wrap;connectable=0;strokeColor=#000000;overflow=hidden;fillColor=none;top=0;left=0;bottom=0;right=0;pointerEvents=1;fontSize=16;" parent="dwMM7s0VIMXF59yQhedn-263" vertex="1">
          <mxGeometry width="39" height="40" as="geometry">
            <mxRectangle width="39" height="40" as="alternateBounds" />
          </mxGeometry>
        </mxCell>
        <mxCell id="dwMM7s0VIMXF59yQhedn-265" style="shape=tableRow;horizontal=0;startSize=0;swimlaneHead=0;swimlaneBody=0;strokeColor=#000000;top=0;left=0;bottom=0;right=0;collapsible=0;dropTarget=0;fillColor=none;points=[[0,0.5],[1,0.5]];portConstraint=eastwest;fontSize=16;" parent="dwMM7s0VIMXF59yQhedn-260" vertex="1">
          <mxGeometry y="120" width="39" height="41" as="geometry" />
        </mxCell>
        <mxCell id="dwMM7s0VIMXF59yQhedn-266" style="shape=partialRectangle;html=1;whiteSpace=wrap;connectable=0;strokeColor=#000000;overflow=hidden;fillColor=none;top=0;left=0;bottom=0;right=0;pointerEvents=1;fontSize=16;" parent="dwMM7s0VIMXF59yQhedn-265" vertex="1">
          <mxGeometry width="39" height="41" as="geometry">
            <mxRectangle width="39" height="41" as="alternateBounds" />
          </mxGeometry>
        </mxCell>
        <mxCell id="dwMM7s0VIMXF59yQhedn-267" value="" style="shape=table;startSize=0;container=1;collapsible=0;childLayout=tableLayout;fontSize=16;direction=south;flipH=1;flipV=1;fillColor=#ffd966;fontColor=#ffffff;strokeColor=#000000;strokeWidth=1;" parent="1" vertex="1">
          <mxGeometry x="-549" y="274.5" width="39" height="161" as="geometry" />
        </mxCell>
        <mxCell id="dwMM7s0VIMXF59yQhedn-268" style="shape=tableRow;horizontal=0;startSize=0;swimlaneHead=0;swimlaneBody=0;strokeColor=#000000;top=0;left=0;bottom=0;right=0;collapsible=0;dropTarget=0;fillColor=none;points=[[0,0.5],[1,0.5]];portConstraint=eastwest;fontSize=16;" parent="dwMM7s0VIMXF59yQhedn-267" vertex="1">
          <mxGeometry width="39" height="40" as="geometry" />
        </mxCell>
        <mxCell id="dwMM7s0VIMXF59yQhedn-269" style="shape=partialRectangle;html=1;whiteSpace=wrap;connectable=0;strokeColor=#ffd966;overflow=hidden;fillColor=none;top=0;left=0;bottom=0;right=0;pointerEvents=1;fontSize=16;" parent="dwMM7s0VIMXF59yQhedn-268" vertex="1">
          <mxGeometry width="39" height="40" as="geometry">
            <mxRectangle width="39" height="40" as="alternateBounds" />
          </mxGeometry>
        </mxCell>
        <mxCell id="dwMM7s0VIMXF59yQhedn-276" style="shape=tableRow;horizontal=0;startSize=0;swimlaneHead=0;swimlaneBody=0;strokeColor=#000000;top=0;left=0;bottom=0;right=0;collapsible=0;dropTarget=0;fillColor=none;points=[[0,0.5],[1,0.5]];portConstraint=eastwest;fontSize=16;" parent="dwMM7s0VIMXF59yQhedn-267" vertex="1">
          <mxGeometry y="40" width="39" height="40" as="geometry" />
        </mxCell>
        <mxCell id="dwMM7s0VIMXF59yQhedn-277" style="shape=partialRectangle;html=1;whiteSpace=wrap;connectable=0;strokeColor=#000000;overflow=hidden;fillColor=none;top=0;left=0;bottom=0;right=0;pointerEvents=1;fontSize=16;" parent="dwMM7s0VIMXF59yQhedn-276" vertex="1">
          <mxGeometry width="39" height="40" as="geometry">
            <mxRectangle width="39" height="40" as="alternateBounds" />
          </mxGeometry>
        </mxCell>
        <mxCell id="dwMM7s0VIMXF59yQhedn-270" style="shape=tableRow;horizontal=0;startSize=0;swimlaneHead=0;swimlaneBody=0;strokeColor=#000000;top=0;left=0;bottom=0;right=0;collapsible=0;dropTarget=0;fillColor=none;points=[[0,0.5],[1,0.5]];portConstraint=eastwest;fontSize=16;" parent="dwMM7s0VIMXF59yQhedn-267" vertex="1">
          <mxGeometry y="80" width="39" height="40" as="geometry" />
        </mxCell>
        <mxCell id="dwMM7s0VIMXF59yQhedn-271" style="shape=partialRectangle;html=1;whiteSpace=wrap;connectable=0;strokeColor=#8faadc;overflow=hidden;fillColor=none;top=0;left=0;bottom=0;right=0;pointerEvents=1;fontSize=16;" parent="dwMM7s0VIMXF59yQhedn-270" vertex="1">
          <mxGeometry width="39" height="40" as="geometry">
            <mxRectangle width="39" height="40" as="alternateBounds" />
          </mxGeometry>
        </mxCell>
        <mxCell id="dwMM7s0VIMXF59yQhedn-272" style="shape=tableRow;horizontal=0;startSize=0;swimlaneHead=0;swimlaneBody=0;strokeColor=#000000;top=0;left=0;bottom=0;right=0;collapsible=0;dropTarget=0;fillColor=none;points=[[0,0.5],[1,0.5]];portConstraint=eastwest;fontSize=16;" parent="dwMM7s0VIMXF59yQhedn-267" vertex="1">
          <mxGeometry y="120" width="39" height="41" as="geometry" />
        </mxCell>
        <mxCell id="dwMM7s0VIMXF59yQhedn-273" style="shape=partialRectangle;html=1;whiteSpace=wrap;connectable=0;strokeColor=#000000;overflow=hidden;fillColor=none;top=0;left=0;bottom=0;right=0;pointerEvents=1;fontSize=16;" parent="dwMM7s0VIMXF59yQhedn-272" vertex="1">
          <mxGeometry width="39" height="41" as="geometry">
            <mxRectangle width="39" height="41" as="alternateBounds" />
          </mxGeometry>
        </mxCell>
        <mxCell id="dwMM7s0VIMXF59yQhedn-280" value="" style="shape=table;startSize=0;container=1;collapsible=0;childLayout=tableLayout;fontSize=16;direction=south;flipH=1;flipV=1;fillColor=#843c0c;fontColor=#ffffff;strokeColor=#000000;strokeWidth=1;" parent="1" vertex="1">
          <mxGeometry x="-569" y="519" width="39" height="203" as="geometry" />
        </mxCell>
        <mxCell id="dwMM7s0VIMXF59yQhedn-281" style="shape=tableRow;horizontal=0;startSize=0;swimlaneHead=0;swimlaneBody=0;strokeColor=#000000;top=0;left=0;bottom=0;right=0;collapsible=0;dropTarget=0;fillColor=none;points=[[0,0.5],[1,0.5]];portConstraint=eastwest;fontSize=16;" parent="dwMM7s0VIMXF59yQhedn-280" vertex="1">
          <mxGeometry width="39" height="40" as="geometry" />
        </mxCell>
        <mxCell id="dwMM7s0VIMXF59yQhedn-282" style="shape=partialRectangle;html=1;whiteSpace=wrap;connectable=0;strokeColor=#000000;overflow=hidden;fillColor=none;top=0;left=0;bottom=0;right=0;pointerEvents=1;fontSize=16;" parent="dwMM7s0VIMXF59yQhedn-281" vertex="1">
          <mxGeometry width="39" height="40" as="geometry">
            <mxRectangle width="39" height="40" as="alternateBounds" />
          </mxGeometry>
        </mxCell>
        <mxCell id="dwMM7s0VIMXF59yQhedn-283" style="shape=tableRow;horizontal=0;startSize=0;swimlaneHead=0;swimlaneBody=0;strokeColor=#000000;top=0;left=0;bottom=0;right=0;collapsible=0;dropTarget=0;fillColor=none;points=[[0,0.5],[1,0.5]];portConstraint=eastwest;fontSize=16;" parent="dwMM7s0VIMXF59yQhedn-280" vertex="1">
          <mxGeometry y="40" width="39" height="40" as="geometry" />
        </mxCell>
        <mxCell id="dwMM7s0VIMXF59yQhedn-284" style="shape=partialRectangle;html=1;whiteSpace=wrap;connectable=0;strokeColor=#000000;overflow=hidden;fillColor=none;top=0;left=0;bottom=0;right=0;pointerEvents=1;fontSize=16;" parent="dwMM7s0VIMXF59yQhedn-283" vertex="1">
          <mxGeometry width="39" height="40" as="geometry">
            <mxRectangle width="39" height="40" as="alternateBounds" />
          </mxGeometry>
        </mxCell>
        <mxCell id="dwMM7s0VIMXF59yQhedn-285" style="shape=tableRow;horizontal=0;startSize=0;swimlaneHead=0;swimlaneBody=0;strokeColor=#000000;top=0;left=0;bottom=0;right=0;collapsible=0;dropTarget=0;fillColor=none;points=[[0,0.5],[1,0.5]];portConstraint=eastwest;fontSize=16;" parent="dwMM7s0VIMXF59yQhedn-280" vertex="1">
          <mxGeometry y="80" width="39" height="41" as="geometry" />
        </mxCell>
        <mxCell id="dwMM7s0VIMXF59yQhedn-286" style="shape=partialRectangle;html=1;whiteSpace=wrap;connectable=0;strokeColor=#000000;overflow=hidden;fillColor=none;top=0;left=0;bottom=0;right=0;pointerEvents=1;fontSize=16;" parent="dwMM7s0VIMXF59yQhedn-285" vertex="1">
          <mxGeometry width="39" height="41" as="geometry">
            <mxRectangle width="39" height="41" as="alternateBounds" />
          </mxGeometry>
        </mxCell>
        <mxCell id="dwMM7s0VIMXF59yQhedn-287" style="shape=tableRow;horizontal=0;startSize=0;swimlaneHead=0;swimlaneBody=0;strokeColor=#000000;top=0;left=0;bottom=0;right=0;collapsible=0;dropTarget=0;fillColor=none;points=[[0,0.5],[1,0.5]];portConstraint=eastwest;fontSize=16;" parent="dwMM7s0VIMXF59yQhedn-280" vertex="1">
          <mxGeometry y="121" width="39" height="41" as="geometry" />
        </mxCell>
        <mxCell id="dwMM7s0VIMXF59yQhedn-288" style="shape=partialRectangle;html=1;whiteSpace=wrap;connectable=0;strokeColor=#000000;overflow=hidden;fillColor=none;top=0;left=0;bottom=0;right=0;pointerEvents=1;fontSize=16;" parent="dwMM7s0VIMXF59yQhedn-287" vertex="1">
          <mxGeometry width="39" height="41" as="geometry">
            <mxRectangle width="39" height="41" as="alternateBounds" />
          </mxGeometry>
        </mxCell>
        <mxCell id="dwMM7s0VIMXF59yQhedn-307" style="shape=tableRow;horizontal=0;startSize=0;swimlaneHead=0;swimlaneBody=0;strokeColor=#000000;top=0;left=0;bottom=0;right=0;collapsible=0;dropTarget=0;fillColor=none;points=[[0,0.5],[1,0.5]];portConstraint=eastwest;fontSize=16;" parent="dwMM7s0VIMXF59yQhedn-280" vertex="1">
          <mxGeometry y="162" width="39" height="41" as="geometry" />
        </mxCell>
        <mxCell id="dwMM7s0VIMXF59yQhedn-308" style="shape=partialRectangle;html=1;whiteSpace=wrap;connectable=0;strokeColor=#000000;overflow=hidden;fillColor=none;top=0;left=0;bottom=0;right=0;pointerEvents=1;fontSize=16;" parent="dwMM7s0VIMXF59yQhedn-307" vertex="1">
          <mxGeometry width="39" height="41" as="geometry">
            <mxRectangle width="39" height="41" as="alternateBounds" />
          </mxGeometry>
        </mxCell>
        <mxCell id="dwMM7s0VIMXF59yQhedn-289" value="" style="shape=table;startSize=0;container=1;collapsible=0;childLayout=tableLayout;fontSize=16;direction=south;flipH=1;flipV=1;fillColor=#c55a11;fontColor=#ffffff;strokeColor=#000000;strokeWidth=1;" parent="1" vertex="1">
          <mxGeometry x="-559" y="529" width="39" height="202" as="geometry" />
        </mxCell>
        <mxCell id="dwMM7s0VIMXF59yQhedn-290" style="shape=tableRow;horizontal=0;startSize=0;swimlaneHead=0;swimlaneBody=0;strokeColor=#000000;top=0;left=0;bottom=0;right=0;collapsible=0;dropTarget=0;fillColor=none;points=[[0,0.5],[1,0.5]];portConstraint=eastwest;fontSize=16;" parent="dwMM7s0VIMXF59yQhedn-289" vertex="1">
          <mxGeometry width="39" height="40" as="geometry" />
        </mxCell>
        <mxCell id="dwMM7s0VIMXF59yQhedn-291" style="shape=partialRectangle;html=1;whiteSpace=wrap;connectable=0;strokeColor=#000000;overflow=hidden;fillColor=none;top=0;left=0;bottom=0;right=0;pointerEvents=1;fontSize=16;" parent="dwMM7s0VIMXF59yQhedn-290" vertex="1">
          <mxGeometry width="39" height="40" as="geometry">
            <mxRectangle width="39" height="40" as="alternateBounds" />
          </mxGeometry>
        </mxCell>
        <mxCell id="dwMM7s0VIMXF59yQhedn-292" style="shape=tableRow;horizontal=0;startSize=0;swimlaneHead=0;swimlaneBody=0;strokeColor=#000000;top=0;left=0;bottom=0;right=0;collapsible=0;dropTarget=0;fillColor=none;points=[[0,0.5],[1,0.5]];portConstraint=eastwest;fontSize=16;" parent="dwMM7s0VIMXF59yQhedn-289" vertex="1">
          <mxGeometry y="40" width="39" height="40" as="geometry" />
        </mxCell>
        <mxCell id="dwMM7s0VIMXF59yQhedn-293" style="shape=partialRectangle;html=1;whiteSpace=wrap;connectable=0;strokeColor=#000000;overflow=hidden;fillColor=none;top=0;left=0;bottom=0;right=0;pointerEvents=1;fontSize=16;" parent="dwMM7s0VIMXF59yQhedn-292" vertex="1">
          <mxGeometry width="39" height="40" as="geometry">
            <mxRectangle width="39" height="40" as="alternateBounds" />
          </mxGeometry>
        </mxCell>
        <mxCell id="dwMM7s0VIMXF59yQhedn-294" style="shape=tableRow;horizontal=0;startSize=0;swimlaneHead=0;swimlaneBody=0;strokeColor=#000000;top=0;left=0;bottom=0;right=0;collapsible=0;dropTarget=0;fillColor=none;points=[[0,0.5],[1,0.5]];portConstraint=eastwest;fontSize=16;" parent="dwMM7s0VIMXF59yQhedn-289" vertex="1">
          <mxGeometry y="80" width="39" height="40" as="geometry" />
        </mxCell>
        <mxCell id="dwMM7s0VIMXF59yQhedn-295" style="shape=partialRectangle;html=1;whiteSpace=wrap;connectable=0;strokeColor=#000000;overflow=hidden;fillColor=none;top=0;left=0;bottom=0;right=0;pointerEvents=1;fontSize=16;" parent="dwMM7s0VIMXF59yQhedn-294" vertex="1">
          <mxGeometry width="39" height="40" as="geometry">
            <mxRectangle width="39" height="40" as="alternateBounds" />
          </mxGeometry>
        </mxCell>
        <mxCell id="dwMM7s0VIMXF59yQhedn-296" style="shape=tableRow;horizontal=0;startSize=0;swimlaneHead=0;swimlaneBody=0;strokeColor=#000000;top=0;left=0;bottom=0;right=0;collapsible=0;dropTarget=0;fillColor=none;points=[[0,0.5],[1,0.5]];portConstraint=eastwest;fontSize=16;" parent="dwMM7s0VIMXF59yQhedn-289" vertex="1">
          <mxGeometry y="120" width="39" height="41" as="geometry" />
        </mxCell>
        <mxCell id="dwMM7s0VIMXF59yQhedn-297" style="shape=partialRectangle;html=1;whiteSpace=wrap;connectable=0;strokeColor=#000000;overflow=hidden;fillColor=none;top=0;left=0;bottom=0;right=0;pointerEvents=1;fontSize=16;" parent="dwMM7s0VIMXF59yQhedn-296" vertex="1">
          <mxGeometry width="39" height="41" as="geometry">
            <mxRectangle width="39" height="41" as="alternateBounds" />
          </mxGeometry>
        </mxCell>
        <mxCell id="dwMM7s0VIMXF59yQhedn-311" style="shape=tableRow;horizontal=0;startSize=0;swimlaneHead=0;swimlaneBody=0;strokeColor=#000000;top=0;left=0;bottom=0;right=0;collapsible=0;dropTarget=0;fillColor=none;points=[[0,0.5],[1,0.5]];portConstraint=eastwest;fontSize=16;" parent="dwMM7s0VIMXF59yQhedn-289" vertex="1">
          <mxGeometry y="161" width="39" height="41" as="geometry" />
        </mxCell>
        <mxCell id="dwMM7s0VIMXF59yQhedn-312" style="shape=partialRectangle;html=1;whiteSpace=wrap;connectable=0;strokeColor=#000000;overflow=hidden;fillColor=none;top=0;left=0;bottom=0;right=0;pointerEvents=1;fontSize=16;" parent="dwMM7s0VIMXF59yQhedn-311" vertex="1">
          <mxGeometry width="39" height="41" as="geometry">
            <mxRectangle width="39" height="41" as="alternateBounds" />
          </mxGeometry>
        </mxCell>
        <mxCell id="dwMM7s0VIMXF59yQhedn-298" value="" style="shape=table;startSize=0;container=1;collapsible=0;childLayout=tableLayout;fontSize=16;direction=south;flipH=1;flipV=1;fillColor=#f4b183;fontColor=#ffffff;strokeColor=#000000;strokeWidth=1;" parent="1" vertex="1">
          <mxGeometry x="-551" y="538" width="39" height="202" as="geometry" />
        </mxCell>
        <mxCell id="dwMM7s0VIMXF59yQhedn-299" style="shape=tableRow;horizontal=0;startSize=0;swimlaneHead=0;swimlaneBody=0;strokeColor=#000000;top=0;left=0;bottom=0;right=0;collapsible=0;dropTarget=0;fillColor=none;points=[[0,0.5],[1,0.5]];portConstraint=eastwest;fontSize=16;" parent="dwMM7s0VIMXF59yQhedn-298" vertex="1">
          <mxGeometry width="39" height="40" as="geometry" />
        </mxCell>
        <mxCell id="dwMM7s0VIMXF59yQhedn-300" style="shape=partialRectangle;html=1;whiteSpace=wrap;connectable=0;strokeColor=#ffd966;overflow=hidden;fillColor=none;top=0;left=0;bottom=0;right=0;pointerEvents=1;fontSize=16;" parent="dwMM7s0VIMXF59yQhedn-299" vertex="1">
          <mxGeometry width="39" height="40" as="geometry">
            <mxRectangle width="39" height="40" as="alternateBounds" />
          </mxGeometry>
        </mxCell>
        <mxCell id="dwMM7s0VIMXF59yQhedn-301" style="shape=tableRow;horizontal=0;startSize=0;swimlaneHead=0;swimlaneBody=0;strokeColor=#000000;top=0;left=0;bottom=0;right=0;collapsible=0;dropTarget=0;fillColor=none;points=[[0,0.5],[1,0.5]];portConstraint=eastwest;fontSize=16;" parent="dwMM7s0VIMXF59yQhedn-298" vertex="1">
          <mxGeometry y="40" width="39" height="40" as="geometry" />
        </mxCell>
        <mxCell id="dwMM7s0VIMXF59yQhedn-302" style="shape=partialRectangle;html=1;whiteSpace=wrap;connectable=0;strokeColor=#000000;overflow=hidden;fillColor=none;top=0;left=0;bottom=0;right=0;pointerEvents=1;fontSize=16;" parent="dwMM7s0VIMXF59yQhedn-301" vertex="1">
          <mxGeometry width="39" height="40" as="geometry">
            <mxRectangle width="39" height="40" as="alternateBounds" />
          </mxGeometry>
        </mxCell>
        <mxCell id="dwMM7s0VIMXF59yQhedn-303" style="shape=tableRow;horizontal=0;startSize=0;swimlaneHead=0;swimlaneBody=0;strokeColor=#000000;top=0;left=0;bottom=0;right=0;collapsible=0;dropTarget=0;fillColor=none;points=[[0,0.5],[1,0.5]];portConstraint=eastwest;fontSize=16;" parent="dwMM7s0VIMXF59yQhedn-298" vertex="1">
          <mxGeometry y="80" width="39" height="40" as="geometry" />
        </mxCell>
        <mxCell id="dwMM7s0VIMXF59yQhedn-304" style="shape=partialRectangle;html=1;whiteSpace=wrap;connectable=0;strokeColor=#8faadc;overflow=hidden;fillColor=none;top=0;left=0;bottom=0;right=0;pointerEvents=1;fontSize=16;" parent="dwMM7s0VIMXF59yQhedn-303" vertex="1">
          <mxGeometry width="39" height="40" as="geometry">
            <mxRectangle width="39" height="40" as="alternateBounds" />
          </mxGeometry>
        </mxCell>
        <mxCell id="dwMM7s0VIMXF59yQhedn-305" style="shape=tableRow;horizontal=0;startSize=0;swimlaneHead=0;swimlaneBody=0;strokeColor=#000000;top=0;left=0;bottom=0;right=0;collapsible=0;dropTarget=0;fillColor=none;points=[[0,0.5],[1,0.5]];portConstraint=eastwest;fontSize=16;" parent="dwMM7s0VIMXF59yQhedn-298" vertex="1">
          <mxGeometry y="120" width="39" height="41" as="geometry" />
        </mxCell>
        <mxCell id="dwMM7s0VIMXF59yQhedn-306" style="shape=partialRectangle;html=1;whiteSpace=wrap;connectable=0;strokeColor=#000000;overflow=hidden;fillColor=none;top=0;left=0;bottom=0;right=0;pointerEvents=1;fontSize=16;" parent="dwMM7s0VIMXF59yQhedn-305" vertex="1">
          <mxGeometry width="39" height="41" as="geometry">
            <mxRectangle width="39" height="41" as="alternateBounds" />
          </mxGeometry>
        </mxCell>
        <mxCell id="dwMM7s0VIMXF59yQhedn-309" style="shape=tableRow;horizontal=0;startSize=0;swimlaneHead=0;swimlaneBody=0;strokeColor=#000000;top=0;left=0;bottom=0;right=0;collapsible=0;dropTarget=0;fillColor=none;points=[[0,0.5],[1,0.5]];portConstraint=eastwest;fontSize=16;" parent="dwMM7s0VIMXF59yQhedn-298" vertex="1">
          <mxGeometry y="161" width="39" height="41" as="geometry" />
        </mxCell>
        <mxCell id="dwMM7s0VIMXF59yQhedn-310" style="shape=partialRectangle;html=1;whiteSpace=wrap;connectable=0;strokeColor=#000000;overflow=hidden;fillColor=none;top=0;left=0;bottom=0;right=0;pointerEvents=1;fontSize=16;" parent="dwMM7s0VIMXF59yQhedn-309" vertex="1">
          <mxGeometry width="39" height="41" as="geometry">
            <mxRectangle width="39" height="41" as="alternateBounds" />
          </mxGeometry>
        </mxCell>
        <mxCell id="dwMM7s0VIMXF59yQhedn-313" value="" style="shape=table;startSize=0;container=1;collapsible=0;childLayout=tableLayout;fontSize=16;direction=south;flipH=1;flipV=1;fillColor=#203864;fontColor=#ffffff;strokeColor=#000000;strokeWidth=1;" parent="1" vertex="1">
          <mxGeometry x="-403" y="164" width="39" height="40" as="geometry" />
        </mxCell>
        <mxCell id="dwMM7s0VIMXF59yQhedn-314" style="shape=tableRow;horizontal=0;startSize=0;swimlaneHead=0;swimlaneBody=0;strokeColor=#000000;top=0;left=0;bottom=0;right=0;collapsible=0;dropTarget=0;fillColor=none;points=[[0,0.5],[1,0.5]];portConstraint=eastwest;fontSize=16;" parent="dwMM7s0VIMXF59yQhedn-313" vertex="1">
          <mxGeometry width="39" height="40" as="geometry" />
        </mxCell>
        <mxCell id="dwMM7s0VIMXF59yQhedn-315" style="shape=partialRectangle;html=1;whiteSpace=wrap;connectable=0;strokeColor=#000000;overflow=hidden;fillColor=none;top=0;left=0;bottom=0;right=0;pointerEvents=1;fontSize=16;" parent="dwMM7s0VIMXF59yQhedn-314" vertex="1">
          <mxGeometry width="39" height="40" as="geometry">
            <mxRectangle width="39" height="40" as="alternateBounds" />
          </mxGeometry>
        </mxCell>
        <mxCell id="dwMM7s0VIMXF59yQhedn-320" value="" style="shape=table;startSize=0;container=1;collapsible=0;childLayout=tableLayout;fontSize=16;direction=south;flipH=1;flipV=1;fillColor=#2f5597;fontColor=#ffffff;strokeColor=#000000;strokeWidth=1;" parent="1" vertex="1">
          <mxGeometry x="-393" y="174" width="39" height="40" as="geometry" />
        </mxCell>
        <mxCell id="dwMM7s0VIMXF59yQhedn-321" style="shape=tableRow;horizontal=0;startSize=0;swimlaneHead=0;swimlaneBody=0;strokeColor=#000000;top=0;left=0;bottom=0;right=0;collapsible=0;dropTarget=0;fillColor=none;points=[[0,0.5],[1,0.5]];portConstraint=eastwest;fontSize=16;" parent="dwMM7s0VIMXF59yQhedn-320" vertex="1">
          <mxGeometry width="39" height="40" as="geometry" />
        </mxCell>
        <mxCell id="dwMM7s0VIMXF59yQhedn-322" style="shape=partialRectangle;html=1;whiteSpace=wrap;connectable=0;strokeColor=#000000;overflow=hidden;fillColor=none;top=0;left=0;bottom=0;right=0;pointerEvents=1;fontSize=16;" parent="dwMM7s0VIMXF59yQhedn-321" vertex="1">
          <mxGeometry width="39" height="40" as="geometry">
            <mxRectangle width="39" height="40" as="alternateBounds" />
          </mxGeometry>
        </mxCell>
        <mxCell id="dwMM7s0VIMXF59yQhedn-327" value="" style="shape=table;startSize=0;container=1;collapsible=0;childLayout=tableLayout;fontSize=16;direction=south;flipH=1;flipV=1;fillColor=#8faadc;fontColor=#ffffff;strokeColor=#000000;strokeWidth=1;" parent="1" vertex="1">
          <mxGeometry x="-383" y="184" width="39" height="40" as="geometry" />
        </mxCell>
        <mxCell id="dwMM7s0VIMXF59yQhedn-328" style="shape=tableRow;horizontal=0;startSize=0;swimlaneHead=0;swimlaneBody=0;strokeColor=#000000;top=0;left=0;bottom=0;right=0;collapsible=0;dropTarget=0;fillColor=none;points=[[0,0.5],[1,0.5]];portConstraint=eastwest;fontSize=16;" parent="dwMM7s0VIMXF59yQhedn-327" vertex="1">
          <mxGeometry width="39" height="40" as="geometry" />
        </mxCell>
        <mxCell id="dwMM7s0VIMXF59yQhedn-329" style="shape=partialRectangle;html=1;whiteSpace=wrap;connectable=0;strokeColor=#000000;overflow=hidden;fillColor=none;top=0;left=0;bottom=0;right=0;pointerEvents=1;fontSize=16;" parent="dwMM7s0VIMXF59yQhedn-328" vertex="1">
          <mxGeometry width="39" height="40" as="geometry">
            <mxRectangle width="39" height="40" as="alternateBounds" />
          </mxGeometry>
        </mxCell>
        <mxCell id="dwMM7s0VIMXF59yQhedn-334" value="" style="shape=table;startSize=0;container=1;collapsible=0;childLayout=tableLayout;fontSize=16;direction=south;flipH=1;flipV=1;fillColor=#7f6000;fontColor=#ffffff;strokeColor=#000000;strokeWidth=1;" parent="1" vertex="1">
          <mxGeometry x="-403" y="334.5" width="39" height="40" as="geometry" />
        </mxCell>
        <mxCell id="dwMM7s0VIMXF59yQhedn-335" style="shape=tableRow;horizontal=0;startSize=0;swimlaneHead=0;swimlaneBody=0;strokeColor=#000000;top=0;left=0;bottom=0;right=0;collapsible=0;dropTarget=0;fillColor=none;points=[[0,0.5],[1,0.5]];portConstraint=eastwest;fontSize=16;" parent="dwMM7s0VIMXF59yQhedn-334" vertex="1">
          <mxGeometry width="39" height="40" as="geometry" />
        </mxCell>
        <mxCell id="dwMM7s0VIMXF59yQhedn-336" style="shape=partialRectangle;html=1;whiteSpace=wrap;connectable=0;strokeColor=#000000;overflow=hidden;fillColor=none;top=0;left=0;bottom=0;right=0;pointerEvents=1;fontSize=16;" parent="dwMM7s0VIMXF59yQhedn-335" vertex="1">
          <mxGeometry width="39" height="40" as="geometry">
            <mxRectangle width="39" height="40" as="alternateBounds" />
          </mxGeometry>
        </mxCell>
        <mxCell id="dwMM7s0VIMXF59yQhedn-343" value="" style="shape=table;startSize=0;container=1;collapsible=0;childLayout=tableLayout;fontSize=16;direction=south;flipH=1;flipV=1;fillColor=#bf9000;fontColor=#ffffff;strokeColor=#000000;strokeWidth=1;" parent="1" vertex="1">
          <mxGeometry x="-393" y="344.5" width="39" height="40" as="geometry" />
        </mxCell>
        <mxCell id="dwMM7s0VIMXF59yQhedn-344" style="shape=tableRow;horizontal=0;startSize=0;swimlaneHead=0;swimlaneBody=0;strokeColor=#000000;top=0;left=0;bottom=0;right=0;collapsible=0;dropTarget=0;fillColor=none;points=[[0,0.5],[1,0.5]];portConstraint=eastwest;fontSize=16;" parent="dwMM7s0VIMXF59yQhedn-343" vertex="1">
          <mxGeometry width="39" height="40" as="geometry" />
        </mxCell>
        <mxCell id="dwMM7s0VIMXF59yQhedn-345" style="shape=partialRectangle;html=1;whiteSpace=wrap;connectable=0;strokeColor=#000000;overflow=hidden;fillColor=none;top=0;left=0;bottom=0;right=0;pointerEvents=1;fontSize=16;" parent="dwMM7s0VIMXF59yQhedn-344" vertex="1">
          <mxGeometry width="39" height="40" as="geometry">
            <mxRectangle width="39" height="40" as="alternateBounds" />
          </mxGeometry>
        </mxCell>
        <mxCell id="dwMM7s0VIMXF59yQhedn-352" value="" style="shape=table;startSize=0;container=1;collapsible=0;childLayout=tableLayout;fontSize=16;direction=south;flipH=1;flipV=1;fillColor=#ffd966;fontColor=#ffffff;strokeColor=#000000;strokeWidth=1;" parent="1" vertex="1">
          <mxGeometry x="-383" y="354.5" width="39" height="40" as="geometry" />
        </mxCell>
        <mxCell id="dwMM7s0VIMXF59yQhedn-353" style="shape=tableRow;horizontal=0;startSize=0;swimlaneHead=0;swimlaneBody=0;strokeColor=#000000;top=0;left=0;bottom=0;right=0;collapsible=0;dropTarget=0;fillColor=none;points=[[0,0.5],[1,0.5]];portConstraint=eastwest;fontSize=16;" parent="dwMM7s0VIMXF59yQhedn-352" vertex="1">
          <mxGeometry width="39" height="40" as="geometry" />
        </mxCell>
        <mxCell id="dwMM7s0VIMXF59yQhedn-354" style="shape=partialRectangle;html=1;whiteSpace=wrap;connectable=0;strokeColor=#ffd966;overflow=hidden;fillColor=none;top=0;left=0;bottom=0;right=0;pointerEvents=1;fontSize=16;" parent="dwMM7s0VIMXF59yQhedn-353" vertex="1">
          <mxGeometry width="39" height="40" as="geometry">
            <mxRectangle width="39" height="40" as="alternateBounds" />
          </mxGeometry>
        </mxCell>
        <mxCell id="dwMM7s0VIMXF59yQhedn-361" value="" style="shape=table;startSize=0;container=1;collapsible=0;childLayout=tableLayout;fontSize=16;direction=south;flipH=1;flipV=1;fillColor=#843c0c;fontColor=#ffffff;strokeColor=#000000;strokeWidth=1;" parent="1" vertex="1">
          <mxGeometry x="-403" y="474" width="39" height="40" as="geometry" />
        </mxCell>
        <mxCell id="dwMM7s0VIMXF59yQhedn-362" style="shape=tableRow;horizontal=0;startSize=0;swimlaneHead=0;swimlaneBody=0;strokeColor=#000000;top=0;left=0;bottom=0;right=0;collapsible=0;dropTarget=0;fillColor=none;points=[[0,0.5],[1,0.5]];portConstraint=eastwest;fontSize=16;" parent="dwMM7s0VIMXF59yQhedn-361" vertex="1">
          <mxGeometry width="39" height="40" as="geometry" />
        </mxCell>
        <mxCell id="dwMM7s0VIMXF59yQhedn-363" style="shape=partialRectangle;html=1;whiteSpace=wrap;connectable=0;strokeColor=#000000;overflow=hidden;fillColor=none;top=0;left=0;bottom=0;right=0;pointerEvents=1;fontSize=16;" parent="dwMM7s0VIMXF59yQhedn-362" vertex="1">
          <mxGeometry width="39" height="40" as="geometry">
            <mxRectangle width="39" height="40" as="alternateBounds" />
          </mxGeometry>
        </mxCell>
        <mxCell id="dwMM7s0VIMXF59yQhedn-372" value="" style="shape=table;startSize=0;container=1;collapsible=0;childLayout=tableLayout;fontSize=16;direction=south;flipH=1;flipV=1;fillColor=#c55a11;fontColor=#ffffff;strokeColor=#000000;strokeWidth=1;" parent="1" vertex="1">
          <mxGeometry x="-393" y="484" width="39" height="40" as="geometry" />
        </mxCell>
        <mxCell id="dwMM7s0VIMXF59yQhedn-373" style="shape=tableRow;horizontal=0;startSize=0;swimlaneHead=0;swimlaneBody=0;strokeColor=#000000;top=0;left=0;bottom=0;right=0;collapsible=0;dropTarget=0;fillColor=none;points=[[0,0.5],[1,0.5]];portConstraint=eastwest;fontSize=16;" parent="dwMM7s0VIMXF59yQhedn-372" vertex="1">
          <mxGeometry width="39" height="40" as="geometry" />
        </mxCell>
        <mxCell id="dwMM7s0VIMXF59yQhedn-374" style="shape=partialRectangle;html=1;whiteSpace=wrap;connectable=0;strokeColor=#000000;overflow=hidden;fillColor=none;top=0;left=0;bottom=0;right=0;pointerEvents=1;fontSize=16;" parent="dwMM7s0VIMXF59yQhedn-373" vertex="1">
          <mxGeometry width="39" height="40" as="geometry">
            <mxRectangle width="39" height="40" as="alternateBounds" />
          </mxGeometry>
        </mxCell>
        <mxCell id="dwMM7s0VIMXF59yQhedn-383" value="" style="shape=table;startSize=0;container=1;collapsible=0;childLayout=tableLayout;fontSize=16;direction=south;flipH=1;flipV=1;fillColor=#f4b183;fontColor=#ffffff;strokeColor=#000000;strokeWidth=1;" parent="1" vertex="1">
          <mxGeometry x="-385" y="493" width="39" height="40" as="geometry" />
        </mxCell>
        <mxCell id="dwMM7s0VIMXF59yQhedn-384" style="shape=tableRow;horizontal=0;startSize=0;swimlaneHead=0;swimlaneBody=0;strokeColor=#000000;top=0;left=0;bottom=0;right=0;collapsible=0;dropTarget=0;fillColor=none;points=[[0,0.5],[1,0.5]];portConstraint=eastwest;fontSize=16;" parent="dwMM7s0VIMXF59yQhedn-383" vertex="1">
          <mxGeometry width="39" height="40" as="geometry" />
        </mxCell>
        <mxCell id="dwMM7s0VIMXF59yQhedn-385" style="shape=partialRectangle;html=1;whiteSpace=wrap;connectable=0;strokeColor=#ffd966;overflow=hidden;fillColor=none;top=0;left=0;bottom=0;right=0;pointerEvents=1;fontSize=16;" parent="dwMM7s0VIMXF59yQhedn-384" vertex="1">
          <mxGeometry width="39" height="40" as="geometry">
            <mxRectangle width="39" height="40" as="alternateBounds" />
          </mxGeometry>
        </mxCell>
        <mxCell id="dwMM7s0VIMXF59yQhedn-394" value="&lt;b&gt;&lt;font style=&quot;font-size: 30px;&quot;&gt;...&lt;/font&gt;&lt;/b&gt;" style="text;strokeColor=none;align=center;fillColor=none;html=1;verticalAlign=middle;whiteSpace=wrap;rounded=0;" parent="1" vertex="1">
          <mxGeometry x="-601" y="200" width="123" height="33" as="geometry" />
        </mxCell>
        <mxCell id="dwMM7s0VIMXF59yQhedn-396" value="&lt;b&gt;&lt;font style=&quot;font-size: 30px;&quot;&gt;...&lt;/font&gt;&lt;/b&gt;" style="text;strokeColor=none;align=center;fillColor=none;html=1;verticalAlign=middle;whiteSpace=wrap;rounded=0;" parent="1" vertex="1">
          <mxGeometry x="-445" y="274.5" width="123" height="33" as="geometry" />
        </mxCell>
        <mxCell id="dwMM7s0VIMXF59yQhedn-397" value="" style="shape=table;startSize=0;container=1;collapsible=0;childLayout=tableLayout;fontSize=16;direction=south;flipH=1;flipV=1;fillColor=#8faadc;fontColor=#ffffff;strokeColor=#000000;strokeWidth=1;" parent="1" vertex="1">
          <mxGeometry x="-262" y="135" width="39" height="121" as="geometry" />
        </mxCell>
        <mxCell id="dwMM7s0VIMXF59yQhedn-398" style="shape=tableRow;horizontal=0;startSize=0;swimlaneHead=0;swimlaneBody=0;strokeColor=#000000;top=0;left=0;bottom=0;right=0;collapsible=0;dropTarget=0;fillColor=none;points=[[0,0.5],[1,0.5]];portConstraint=eastwest;fontSize=16;" parent="dwMM7s0VIMXF59yQhedn-397" vertex="1">
          <mxGeometry width="39" height="40" as="geometry" />
        </mxCell>
        <mxCell id="dwMM7s0VIMXF59yQhedn-399" style="shape=partialRectangle;html=1;whiteSpace=wrap;connectable=0;strokeColor=#000000;overflow=hidden;fillColor=#203864;top=0;left=0;bottom=0;right=0;pointerEvents=1;fontSize=16;" parent="dwMM7s0VIMXF59yQhedn-398" vertex="1">
          <mxGeometry width="39" height="40" as="geometry">
            <mxRectangle width="39" height="40" as="alternateBounds" />
          </mxGeometry>
        </mxCell>
        <mxCell id="dwMM7s0VIMXF59yQhedn-400" style="shape=tableRow;horizontal=0;startSize=0;swimlaneHead=0;swimlaneBody=0;strokeColor=#000000;top=0;left=0;bottom=0;right=0;collapsible=0;dropTarget=0;fillColor=none;points=[[0,0.5],[1,0.5]];portConstraint=eastwest;fontSize=16;" parent="dwMM7s0VIMXF59yQhedn-397" vertex="1">
          <mxGeometry y="40" width="39" height="40" as="geometry" />
        </mxCell>
        <mxCell id="dwMM7s0VIMXF59yQhedn-401" style="shape=partialRectangle;html=1;whiteSpace=wrap;connectable=0;strokeColor=#000000;overflow=hidden;fillColor=#2f5597;top=0;left=0;bottom=0;right=0;pointerEvents=1;fontSize=16;" parent="dwMM7s0VIMXF59yQhedn-400" vertex="1">
          <mxGeometry width="39" height="40" as="geometry">
            <mxRectangle width="39" height="40" as="alternateBounds" />
          </mxGeometry>
        </mxCell>
        <mxCell id="dwMM7s0VIMXF59yQhedn-402" style="shape=tableRow;horizontal=0;startSize=0;swimlaneHead=0;swimlaneBody=0;strokeColor=#000000;top=0;left=0;bottom=0;right=0;collapsible=0;dropTarget=0;fillColor=none;points=[[0,0.5],[1,0.5]];portConstraint=eastwest;fontSize=16;" parent="dwMM7s0VIMXF59yQhedn-397" vertex="1">
          <mxGeometry y="80" width="39" height="41" as="geometry" />
        </mxCell>
        <mxCell id="dwMM7s0VIMXF59yQhedn-403" style="shape=partialRectangle;html=1;whiteSpace=wrap;connectable=0;strokeColor=#000000;overflow=hidden;fillColor=#8faadc;top=0;left=0;bottom=0;right=0;pointerEvents=1;fontSize=16;" parent="dwMM7s0VIMXF59yQhedn-402" vertex="1">
          <mxGeometry width="39" height="41" as="geometry">
            <mxRectangle width="39" height="41" as="alternateBounds" />
          </mxGeometry>
        </mxCell>
        <mxCell id="dwMM7s0VIMXF59yQhedn-404" value="&lt;b&gt;&lt;font style=&quot;font-size: 30px;&quot;&gt;...&lt;/font&gt;&lt;/b&gt;" style="text;strokeColor=none;align=center;fillColor=none;html=1;verticalAlign=middle;whiteSpace=wrap;rounded=0;" parent="1" vertex="1">
          <mxGeometry x="-304" y="285" width="123" height="33" as="geometry" />
        </mxCell>
        <mxCell id="dwMM7s0VIMXF59yQhedn-405" value="" style="shape=table;startSize=0;container=1;collapsible=0;childLayout=tableLayout;fontSize=16;direction=south;flipH=1;flipV=1;fillColor=#ffd966;fontColor=#ffffff;strokeColor=#000000;strokeWidth=1;" parent="1" vertex="1">
          <mxGeometry x="-262" y="356" width="39" height="244" as="geometry" />
        </mxCell>
        <mxCell id="dwMM7s0VIMXF59yQhedn-406" style="shape=tableRow;horizontal=0;startSize=0;swimlaneHead=0;swimlaneBody=0;strokeColor=#000000;top=0;left=0;bottom=0;right=0;collapsible=0;dropTarget=0;fillColor=none;points=[[0,0.5],[1,0.5]];portConstraint=eastwest;fontSize=16;" parent="dwMM7s0VIMXF59yQhedn-405" vertex="1">
          <mxGeometry width="39" height="40" as="geometry" />
        </mxCell>
        <mxCell id="dwMM7s0VIMXF59yQhedn-407" style="shape=partialRectangle;html=1;whiteSpace=wrap;connectable=0;strokeColor=#000000;overflow=hidden;fillColor=#7f6000;top=0;left=0;bottom=0;right=0;pointerEvents=1;fontSize=16;" parent="dwMM7s0VIMXF59yQhedn-406" vertex="1">
          <mxGeometry width="39" height="40" as="geometry">
            <mxRectangle width="39" height="40" as="alternateBounds" />
          </mxGeometry>
        </mxCell>
        <mxCell id="dwMM7s0VIMXF59yQhedn-408" style="shape=tableRow;horizontal=0;startSize=0;swimlaneHead=0;swimlaneBody=0;strokeColor=#000000;top=0;left=0;bottom=0;right=0;collapsible=0;dropTarget=0;fillColor=none;points=[[0,0.5],[1,0.5]];portConstraint=eastwest;fontSize=16;" parent="dwMM7s0VIMXF59yQhedn-405" vertex="1">
          <mxGeometry y="40" width="39" height="40" as="geometry" />
        </mxCell>
        <mxCell id="dwMM7s0VIMXF59yQhedn-409" style="shape=partialRectangle;html=1;whiteSpace=wrap;connectable=0;strokeColor=#000000;overflow=hidden;fillColor=#bf9000;top=0;left=0;bottom=0;right=0;pointerEvents=1;fontSize=16;" parent="dwMM7s0VIMXF59yQhedn-408" vertex="1">
          <mxGeometry width="39" height="40" as="geometry">
            <mxRectangle width="39" height="40" as="alternateBounds" />
          </mxGeometry>
        </mxCell>
        <mxCell id="dwMM7s0VIMXF59yQhedn-410" style="shape=tableRow;horizontal=0;startSize=0;swimlaneHead=0;swimlaneBody=0;strokeColor=#000000;top=0;left=0;bottom=0;right=0;collapsible=0;dropTarget=0;fillColor=none;points=[[0,0.5],[1,0.5]];portConstraint=eastwest;fontSize=16;" parent="dwMM7s0VIMXF59yQhedn-405" vertex="1">
          <mxGeometry y="80" width="39" height="41" as="geometry" />
        </mxCell>
        <mxCell id="dwMM7s0VIMXF59yQhedn-411" style="shape=partialRectangle;html=1;whiteSpace=wrap;connectable=0;strokeColor=#000000;overflow=hidden;fillColor=#ffd966;top=0;left=0;bottom=0;right=0;pointerEvents=1;fontSize=16;" parent="dwMM7s0VIMXF59yQhedn-410" vertex="1">
          <mxGeometry width="39" height="41" as="geometry">
            <mxRectangle width="39" height="41" as="alternateBounds" />
          </mxGeometry>
        </mxCell>
        <mxCell id="dwMM7s0VIMXF59yQhedn-412" style="shape=tableRow;horizontal=0;startSize=0;swimlaneHead=0;swimlaneBody=0;strokeColor=#000000;top=0;left=0;bottom=0;right=0;collapsible=0;dropTarget=0;fillColor=none;points=[[0,0.5],[1,0.5]];portConstraint=eastwest;fontSize=16;" parent="dwMM7s0VIMXF59yQhedn-405" vertex="1">
          <mxGeometry y="121" width="39" height="41" as="geometry" />
        </mxCell>
        <mxCell id="dwMM7s0VIMXF59yQhedn-413" style="shape=partialRectangle;html=1;whiteSpace=wrap;connectable=0;strokeColor=#000000;overflow=hidden;fillColor=#843c0c;top=0;left=0;bottom=0;right=0;pointerEvents=1;fontSize=16;" parent="dwMM7s0VIMXF59yQhedn-412" vertex="1">
          <mxGeometry width="39" height="41" as="geometry">
            <mxRectangle width="39" height="41" as="alternateBounds" />
          </mxGeometry>
        </mxCell>
        <mxCell id="dwMM7s0VIMXF59yQhedn-414" style="shape=tableRow;horizontal=0;startSize=0;swimlaneHead=0;swimlaneBody=0;strokeColor=#000000;top=0;left=0;bottom=0;right=0;collapsible=0;dropTarget=0;fillColor=none;points=[[0,0.5],[1,0.5]];portConstraint=eastwest;fontSize=16;" parent="dwMM7s0VIMXF59yQhedn-405" vertex="1">
          <mxGeometry y="162" width="39" height="41" as="geometry" />
        </mxCell>
        <mxCell id="dwMM7s0VIMXF59yQhedn-415" style="shape=partialRectangle;html=1;whiteSpace=wrap;connectable=0;strokeColor=#000000;overflow=hidden;fillColor=#c55a11;top=0;left=0;bottom=0;right=0;pointerEvents=1;fontSize=16;" parent="dwMM7s0VIMXF59yQhedn-414" vertex="1">
          <mxGeometry width="39" height="41" as="geometry">
            <mxRectangle width="39" height="41" as="alternateBounds" />
          </mxGeometry>
        </mxCell>
        <mxCell id="dwMM7s0VIMXF59yQhedn-416" style="shape=tableRow;horizontal=0;startSize=0;swimlaneHead=0;swimlaneBody=0;strokeColor=#000000;top=0;left=0;bottom=0;right=0;collapsible=0;dropTarget=0;fillColor=none;points=[[0,0.5],[1,0.5]];portConstraint=eastwest;fontSize=16;" parent="dwMM7s0VIMXF59yQhedn-405" vertex="1">
          <mxGeometry y="203" width="39" height="41" as="geometry" />
        </mxCell>
        <mxCell id="dwMM7s0VIMXF59yQhedn-417" style="shape=partialRectangle;html=1;whiteSpace=wrap;connectable=0;strokeColor=#000000;overflow=hidden;fillColor=#f4b183;top=0;left=0;bottom=0;right=0;pointerEvents=1;fontSize=16;" parent="dwMM7s0VIMXF59yQhedn-416" vertex="1">
          <mxGeometry width="39" height="41" as="geometry">
            <mxRectangle width="39" height="41" as="alternateBounds" />
          </mxGeometry>
        </mxCell>
        <mxCell id="dwMM7s0VIMXF59yQhedn-418" value="" style="shape=table;startSize=0;container=1;collapsible=0;childLayout=tableLayout;fontSize=16;direction=south;flipH=1;flipV=1;fillColor=#ffd966;fontColor=#ffffff;strokeColor=#000000;strokeWidth=1;" parent="1" vertex="1">
          <mxGeometry x="-117" y="321" width="39" height="80" as="geometry" />
        </mxCell>
        <mxCell id="dwMM7s0VIMXF59yQhedn-419" style="shape=tableRow;horizontal=0;startSize=0;swimlaneHead=0;swimlaneBody=0;strokeColor=#000000;top=0;left=0;bottom=0;right=0;collapsible=0;dropTarget=0;fillColor=none;points=[[0,0.5],[1,0.5]];portConstraint=eastwest;fontSize=16;" parent="dwMM7s0VIMXF59yQhedn-418" vertex="1">
          <mxGeometry width="39" height="40" as="geometry" />
        </mxCell>
        <mxCell id="dwMM7s0VIMXF59yQhedn-420" style="shape=partialRectangle;html=1;whiteSpace=wrap;connectable=0;strokeColor=#ffd966;overflow=hidden;fillColor=#7030a0;top=0;left=0;bottom=0;right=0;pointerEvents=1;fontSize=16;" parent="dwMM7s0VIMXF59yQhedn-419" vertex="1">
          <mxGeometry width="39" height="40" as="geometry">
            <mxRectangle width="39" height="40" as="alternateBounds" />
          </mxGeometry>
        </mxCell>
        <mxCell id="dwMM7s0VIMXF59yQhedn-421" style="shape=tableRow;horizontal=0;startSize=0;swimlaneHead=0;swimlaneBody=0;strokeColor=#000000;top=0;left=0;bottom=0;right=0;collapsible=0;dropTarget=0;fillColor=none;points=[[0,0.5],[1,0.5]];portConstraint=eastwest;fontSize=16;" parent="dwMM7s0VIMXF59yQhedn-418" vertex="1">
          <mxGeometry y="40" width="39" height="40" as="geometry" />
        </mxCell>
        <mxCell id="dwMM7s0VIMXF59yQhedn-422" style="shape=partialRectangle;html=1;whiteSpace=wrap;connectable=0;strokeColor=#ffd966;overflow=hidden;fillColor=#385723;top=0;left=0;bottom=0;right=0;pointerEvents=1;fontSize=16;" parent="dwMM7s0VIMXF59yQhedn-421" vertex="1">
          <mxGeometry width="39" height="40" as="geometry">
            <mxRectangle width="39" height="40" as="alternateBounds" />
          </mxGeometry>
        </mxCell>
        <mxCell id="dwMM7s0VIMXF59yQhedn-423" value="" style="shape=curlyBracket;whiteSpace=wrap;html=1;rounded=1;labelPosition=left;verticalLabelPosition=middle;align=right;verticalAlign=middle;direction=north;rotation=30;" parent="1" vertex="1">
          <mxGeometry x="-587" y="160" width="60" height="20" as="geometry" />
        </mxCell>
        <mxCell id="dwMM7s0VIMXF59yQhedn-425" value="" style="shape=curlyBracket;whiteSpace=wrap;html=1;rounded=1;labelPosition=left;verticalLabelPosition=middle;align=right;verticalAlign=middle;direction=north;rotation=30;" parent="1" vertex="1">
          <mxGeometry x="-415.99923788646686" y="224.0002540378444" width="60" height="20" as="geometry" />
        </mxCell>
        <mxCell id="dwMM7s0VIMXF59yQhedn-426" value="&lt;b&gt;100&lt;/b&gt;" style="text;strokeColor=none;align=center;fillColor=none;html=1;verticalAlign=middle;whiteSpace=wrap;rounded=0;" parent="1" vertex="1">
          <mxGeometry x="-601" y="170" width="60" height="30" as="geometry" />
        </mxCell>
        <mxCell id="dwMM7s0VIMXF59yQhedn-428" value="&lt;b&gt;100&lt;/b&gt;" style="text;strokeColor=none;align=center;fillColor=none;html=1;verticalAlign=middle;whiteSpace=wrap;rounded=0;" parent="1" vertex="1">
          <mxGeometry x="-431" y="234.5" width="60" height="30" as="geometry" />
        </mxCell>
        <mxCell id="dwMM7s0VIMXF59yQhedn-430" value="" style="endArrow=none;html=1;rounded=0;exitX=0.995;exitY=-0.008;exitDx=0;exitDy=0;exitPerimeter=0;entryX=0;entryY=0.5;entryDx=0;entryDy=0;" parent="1" source="dwMM7s0VIMXF59yQhedn-34" target="dwMM7s0VIMXF59yQhedn-151" edge="1">
          <mxGeometry width="50" height="50" relative="1" as="geometry">
            <mxPoint x="-663" y="436" as="sourcePoint" />
            <mxPoint x="-613" y="94" as="targetPoint" />
          </mxGeometry>
        </mxCell>
        <mxCell id="dwMM7s0VIMXF59yQhedn-431" value="" style="endArrow=none;html=1;rounded=0;exitX=0.995;exitY=0.992;exitDx=0;exitDy=0;exitPerimeter=0;entryX=0;entryY=0.5;entryDx=0;entryDy=0;" parent="1" source="dwMM7s0VIMXF59yQhedn-17" target="dwMM7s0VIMXF59yQhedn-285" edge="1">
          <mxGeometry width="50" height="50" relative="1" as="geometry">
            <mxPoint x="-663" y="436" as="sourcePoint" />
            <mxPoint x="-613" y="386" as="targetPoint" />
          </mxGeometry>
        </mxCell>
        <mxCell id="dwMM7s0VIMXF59yQhedn-432" value="" style="endArrow=classic;html=1;rounded=0;exitX=0.5;exitY=0;exitDx=0;exitDy=0;entryX=-0.005;entryY=0.99;entryDx=0;entryDy=0;entryPerimeter=0;" parent="1" source="dwMM7s0VIMXF59yQhedn-5" target="dwMM7s0VIMXF59yQhedn-21" edge="1">
          <mxGeometry width="50" height="50" relative="1" as="geometry">
            <mxPoint x="-663" y="436" as="sourcePoint" />
            <mxPoint x="-613" y="386" as="targetPoint" />
          </mxGeometry>
        </mxCell>
        <mxCell id="dwMM7s0VIMXF59yQhedn-433" value="" style="endArrow=classic;html=1;rounded=0;exitX=0.995;exitY=0.901;exitDx=0;exitDy=0;exitPerimeter=0;entryX=-0.014;entryY=1.247;entryDx=0;entryDy=0;entryPerimeter=0;" parent="1" source="dwMM7s0VIMXF59yQhedn-21" target="dwMM7s0VIMXF59yQhedn-256" edge="1">
          <mxGeometry width="50" height="50" relative="1" as="geometry">
            <mxPoint x="-663" y="436" as="sourcePoint" />
            <mxPoint x="-613" y="386" as="targetPoint" />
          </mxGeometry>
        </mxCell>
        <mxCell id="dwMM7s0VIMXF59yQhedn-434" value="" style="endArrow=classic;html=1;rounded=0;exitX=1;exitY=0.5;exitDx=0;exitDy=0;entryX=0.019;entryY=0.055;entryDx=0;entryDy=0;entryPerimeter=0;" parent="1" source="dwMM7s0VIMXF59yQhedn-165" target="dwMM7s0VIMXF59yQhedn-314" edge="1">
          <mxGeometry width="50" height="50" relative="1" as="geometry">
            <mxPoint x="-663" y="436" as="sourcePoint" />
            <mxPoint x="-613" y="386" as="targetPoint" />
          </mxGeometry>
        </mxCell>
        <mxCell id="dwMM7s0VIMXF59yQhedn-435" value="" style="endArrow=classic;html=1;rounded=0;exitX=1;exitY=0.5;exitDx=0;exitDy=0;entryX=0.023;entryY=1.034;entryDx=0;entryDy=0;entryPerimeter=0;" parent="1" source="dwMM7s0VIMXF59yQhedn-303" target="dwMM7s0VIMXF59yQhedn-384" edge="1">
          <mxGeometry width="50" height="50" relative="1" as="geometry">
            <mxPoint x="-663" y="436" as="sourcePoint" />
            <mxPoint x="-613" y="386" as="targetPoint" />
          </mxGeometry>
        </mxCell>
        <mxCell id="dwMM7s0VIMXF59yQhedn-436" value="" style="endArrow=classic;html=1;rounded=0;exitX=0.998;exitY=0.032;exitDx=0;exitDy=0;exitPerimeter=0;entryX=0;entryY=1;entryDx=0;entryDy=0;" parent="1" source="dwMM7s0VIMXF59yQhedn-328" target="dwMM7s0VIMXF59yQhedn-397" edge="1">
          <mxGeometry width="50" height="50" relative="1" as="geometry">
            <mxPoint x="-663" y="436" as="sourcePoint" />
            <mxPoint x="-613" y="386" as="targetPoint" />
          </mxGeometry>
        </mxCell>
        <mxCell id="dwMM7s0VIMXF59yQhedn-437" value="" style="endArrow=classic;html=1;rounded=0;exitX=1.002;exitY=1.034;exitDx=0;exitDy=0;exitPerimeter=0;entryX=1;entryY=1;entryDx=0;entryDy=0;" parent="1" source="dwMM7s0VIMXF59yQhedn-384" target="dwMM7s0VIMXF59yQhedn-405" edge="1">
          <mxGeometry width="50" height="50" relative="1" as="geometry">
            <mxPoint x="-663" y="441" as="sourcePoint" />
            <mxPoint x="-613" y="391" as="targetPoint" />
          </mxGeometry>
        </mxCell>
        <mxCell id="dwMM7s0VIMXF59yQhedn-438" value="" style="endArrow=classic;html=1;rounded=0;exitX=0;exitY=0;exitDx=0;exitDy=0;entryX=0;entryY=1;entryDx=0;entryDy=0;" parent="1" source="dwMM7s0VIMXF59yQhedn-397" target="dwMM7s0VIMXF59yQhedn-418" edge="1">
          <mxGeometry width="50" height="50" relative="1" as="geometry">
            <mxPoint x="-663" y="441" as="sourcePoint" />
            <mxPoint x="-613" y="391" as="targetPoint" />
          </mxGeometry>
        </mxCell>
        <mxCell id="dwMM7s0VIMXF59yQhedn-439" value="" style="endArrow=classic;html=1;rounded=0;exitX=1;exitY=0;exitDx=0;exitDy=0;entryX=1;entryY=1;entryDx=0;entryDy=0;" parent="1" source="dwMM7s0VIMXF59yQhedn-405" target="dwMM7s0VIMXF59yQhedn-418" edge="1">
          <mxGeometry width="50" height="50" relative="1" as="geometry">
            <mxPoint x="-663" y="441" as="sourcePoint" />
            <mxPoint x="-613" y="391" as="targetPoint" />
          </mxGeometry>
        </mxCell>
        <mxCell id="dwMM7s0VIMXF59yQhedn-440" value="&lt;font style=&quot;font-size: 20px;&quot;&gt;&lt;b&gt;Cov Layer&lt;/b&gt;&lt;/font&gt;" style="text;strokeColor=none;align=center;fillColor=none;html=1;verticalAlign=middle;whiteSpace=wrap;rounded=0;" parent="1" vertex="1">
          <mxGeometry x="-675" y="781" width="104" height="30" as="geometry" />
        </mxCell>
        <mxCell id="dwMM7s0VIMXF59yQhedn-441" value="&lt;font style=&quot;font-size: 20px;&quot;&gt;&lt;b&gt;Maxpool Layer&lt;/b&gt;&lt;/font&gt;" style="text;strokeColor=none;align=center;fillColor=none;html=1;verticalAlign=middle;whiteSpace=wrap;rounded=0;" parent="1" vertex="1">
          <mxGeometry x="-517" y="781" width="146" height="30" as="geometry" />
        </mxCell>
        <mxCell id="dwMM7s0VIMXF59yQhedn-443" value="&lt;font style=&quot;font-size: 20px;&quot;&gt;&lt;b&gt;FC Layer&lt;/b&gt;&lt;/font&gt;" style="text;strokeColor=none;align=center;fillColor=none;html=1;verticalAlign=middle;whiteSpace=wrap;rounded=0;" parent="1" vertex="1">
          <mxGeometry x="-252" y="781" width="146" height="30" as="geometry" />
        </mxCell>
        <mxCell id="dwMM7s0VIMXF59yQhedn-444" value="&lt;font style=&quot;font-size: 20px;&quot;&gt;Embeddings&lt;/font&gt;" style="text;strokeColor=none;align=center;fillColor=none;html=1;verticalAlign=middle;whiteSpace=wrap;rounded=0;" parent="1" vertex="1">
          <mxGeometry x="-798" y="486" width="104" height="30" as="geometry" />
        </mxCell>
        <mxCell id="dwMM7s0VIMXF59yQhedn-448" value="" style="shape=crossbar;whiteSpace=wrap;html=1;rounded=1;" parent="1" vertex="1">
          <mxGeometry x="-664" y="755" width="95" height="20" as="geometry" />
        </mxCell>
        <mxCell id="dwMM7s0VIMXF59yQhedn-450" value="" style="shape=crossbar;whiteSpace=wrap;html=1;rounded=1;" parent="1" vertex="1">
          <mxGeometry x="-510" y="755" width="111" height="20" as="geometry" />
        </mxCell>
        <mxCell id="dwMM7s0VIMXF59yQhedn-455" value="" style="shape=crossbar;whiteSpace=wrap;html=1;rounded=1;" parent="1" vertex="1">
          <mxGeometry x="-223" y="755" width="107" height="20" as="geometry" />
        </mxCell>
      </root>
    </mxGraphModel>
  </diagram>
</mxfile>
